<?xml version="1.0" encoding="UTF-8"?>
<svg version="1.1" xmlns="http://www.w3.org/2000/svg" width="1024" height="301">
<path d="M0 0 C337.92 0 675.84 0 1024 0 C1024 99.33 1024 198.66 1024 301 C686.08 301 348.16 301 0 301 C0 201.67 0 102.34 0 0 Z " fill="#FEFEFE" transform="translate(0,0)"/>
<path d="M0 0 C0.71663818 0.03456299 1.43327637 0.06912598 2.17163086 0.10473633 C6.83488216 0.3988443 10.92552965 1.25689602 15.375 2.6875 C15.375 3.3475 15.375 4.0075 15.375 4.6875 C16.365 4.6875 17.355 4.6875 18.375 4.6875 C18.375 5.3475 18.375 6.0075 18.375 6.6875 C19.4578125 7.0278125 19.4578125 7.0278125 20.5625 7.375 C27.6344998 10.67526657 31.88183095 17.70738049 34.54296875 24.80078125 C35.24258773 26.90974098 35.92240754 29.02541784 36.578125 31.1484375 C37.28824431 33.64637272 37.28824431 33.64637272 38.375 35.6875 C39.68206148 45.0430947 39.49555674 54.51478186 39.4375 63.9375 C39.43246923 65.37630051 39.42790914 66.81510274 39.42382812 68.25390625 C39.41296064 71.73180751 39.39578528 75.20964217 39.375 78.6875 C42.84 78.1925 42.84 78.1925 46.375 77.6875 C46.148125 77.089375 45.92125 76.49125 45.6875 75.875 C45.584375 75.153125 45.48125 74.43125 45.375 73.6875 C46.75 72.125 46.75 72.125 48.375 70.6875 C48.87 69.2025 48.87 69.2025 49.375 67.6875 C50.5625 66 50.5625 66 52.375 64.6875 C55.5625 64.5 55.5625 64.5 58.375 64.6875 C58.375 65.3475 58.375 66.0075 58.375 66.6875 C59.86 67.1825 59.86 67.1825 61.375 67.6875 C63.32565425 72.0409469 63.59648123 75.83491951 63.5 80.5625 C63.48195313 81.71492188 63.46390625 82.86734375 63.4453125 84.0546875 C63.42210937 84.92351562 63.39890625 85.79234375 63.375 86.6875 C61.725 86.6875 60.075 86.6875 58.375 86.6875 C57.9728125 88.2653125 57.9728125 88.2653125 57.5625 89.875 C56.375 93.6875 56.375 93.6875 54.9375 96.03515625 C50.498127 103.57099192 48.78894236 112.04314983 49.375 120.6875 C54.95330016 120.81219099 54.95330016 120.81219099 60.375 119.6875 C60.375 118.6975 60.375 117.7075 60.375 116.6875 C61.984375 115.36328125 61.984375 115.36328125 64.125 114 C71.73673943 108.48851205 73.3910146 99.99769663 76.12890625 91.37109375 C78.49510045 84.37635665 81.63278431 78.02476407 85.375 71.6875 C85.766875 70.98496094 86.15875 70.28242187 86.5625 69.55859375 C87.75 67.625 87.75 67.625 90.375 64.6875 C94.1875 64.25 94.1875 64.25 97.375 64.6875 C102.89832519 71.59165649 101.73776872 79.29343482 101.375 87.6875 C100.385 87.3575 99.395 87.0275 98.375 86.6875 C95.80474154 90.9712641 93.78792095 94.8600201 92.375 99.6875 C91.715 99.6875 91.055 99.6875 90.375 99.6875 C89.40955887 104.09721758 88.85257051 108.52341551 88.3125 113 C88.22162109 113.74056641 88.13074219 114.48113281 88.03710938 115.24414062 C87.81471781 117.05838758 87.59462647 118.87291624 87.375 120.6875 C92.9528448 120.79380986 92.9528448 120.79380986 98.375 119.6875 C98.375 118.6975 98.375 117.7075 98.375 116.6875 C99.035 116.6875 99.695 116.6875 100.375 116.6875 C100.52195312 115.79611328 100.52195312 115.79611328 100.671875 114.88671875 C102.35038884 105.5825429 105.75681496 97.08191488 109.3125 88.359375 C110.09098516 86.40171379 110.83639279 84.43081175 111.5625 82.453125 C116.45055104 69.19428654 116.45055104 69.19428654 120.375 64.6875 C124.52314815 63.30478395 124.52314815 63.30478395 127.375 64.6875 C129.75224409 68.28732677 131.58496966 71.42133614 132.375 75.6875 C132.705 76.3475 133.035 77.0075 133.375 77.6875 C134.365 77.6875 135.355 77.6875 136.375 77.6875 C136.74625 76.5428125 136.74625 76.5428125 137.125 75.375 C138.49630672 72.42669055 139.6101079 71.32915468 142.375 69.6875 C143.035 69.6875 143.695 69.6875 144.375 69.6875 C144.375 69.0275 144.375 68.3675 144.375 67.6875 C145.695 67.3575 147.015 67.0275 148.375 66.6875 C148.375 66.0275 148.375 65.3675 148.375 64.6875 C150.355 64.6875 152.335 64.6875 154.375 64.6875 C154.375 65.3475 154.375 66.0075 154.375 66.6875 C155.138125 66.77 155.90125 66.8525 156.6875 66.9375 C159.375 67.6875 159.375 67.6875 161.125 69.375 C163.62690409 74.00352256 163.53250458 79.20978883 163.5625 84.375 C163.57667969 85.49261719 163.59085938 86.61023438 163.60546875 87.76171875 C163.375 90.6875 163.375 90.6875 161.375 93.6875 C160.69231862 95.01270503 160.0242959 96.34562182 159.375 97.6875 C159.045 98.3475 158.715 99.0075 158.375 99.6875 C157.715 99.6875 157.055 99.6875 156.375 99.6875 C156.189375 101.0178125 156.189375 101.0178125 156 102.375 C155.17621031 108.15346681 154.26839325 113.91947561 153.375 119.6875 C155.685 119.6875 157.995 119.6875 160.375 119.6875 C160.375 118.6975 160.375 117.7075 160.375 116.6875 C161.15875 116.336875 161.9425 115.98625 162.75 115.625 C166.44972537 112.89425032 166.42816327 110.16308602 167.11328125 105.76953125 C167.24283203 104.73892578 167.24283203 104.73892578 167.375 103.6875 C168.035 103.6875 168.695 103.6875 169.375 103.6875 C169.07722656 102.59888672 169.07722656 102.59888672 168.7734375 101.48828125 C167.58223821 93.11485097 174.85565957 84.14259545 179.5625 77.6875 C180.160625 77.0275 180.75875 76.3675 181.375 75.6875 C182.035 75.6875 182.695 75.6875 183.375 75.6875 C183.6225 75.06875 183.87 74.45 184.125 73.8125 C185.59746063 71.30931694 186.78528837 70.85704719 189.375 69.6875 C189.705 69.0275 190.035 68.3675 190.375 67.6875 C192.9375 67.0625 192.9375 67.0625 195.375 66.6875 C195.375 66.0275 195.375 65.3675 195.375 64.6875 C196.97820974 64.49198662 198.58262986 64.30638017 200.1875 64.125 C201.52748047 63.96837891 201.52748047 63.96837891 202.89453125 63.80859375 C205.375 63.6875 205.375 63.6875 208.375 64.6875 C209.7799807 66.67503368 210.90967764 68.74974191 212.09375 70.875 C213.32827565 73.00088935 213.32827565 73.00088935 216.375 73.6875 C219.37221601 71.7393096 221.11866345 70.1667379 222.8125 67 C224.375 64.6875 224.375 64.6875 227.3125 63.625 C230.375 63.6875 230.375 63.6875 232.6875 65.3125 C234.49274025 67.8532085 235.03377813 69.61650316 235.375 72.6875 C240.48566077 71.48499158 243.2874843 70.09376308 247.375 66.6875 C248.365 66.6875 249.355 66.6875 250.375 66.6875 C250.375 66.0275 250.375 65.3675 250.375 64.6875 C255.37808432 63.01980523 261.37191568 63.01980523 266.375 64.6875 C266.375 65.3475 266.375 66.0075 266.375 66.6875 C267.365 67.0175 268.355 67.3475 269.375 67.6875 C271.93429605 70.31991879 273.29557083 71.79392187 273.625 75.5 C273.5425 76.221875 273.46 76.94375 273.375 77.6875 C275.355 77.6875 277.335 77.6875 279.375 77.6875 C279.560625 76.98625 279.74625 76.285 279.9375 75.5625 C281.88672961 71.66404078 284.72293019 69.05443166 288.375 66.6875 C289.365 66.6875 290.355 66.6875 291.375 66.6875 C291.375 66.0275 291.375 65.3675 291.375 64.6875 C295.005 64.6875 298.635 64.6875 302.375 64.6875 C302.375 65.3475 302.375 66.0075 302.375 66.6875 C303.1175 66.72875 303.86 66.77 304.625 66.8125 C308.53194537 68.05561898 309.44295028 70.16840945 311.375 73.6875 C312.97186334 78.16076462 312.42273913 82.98936107 312.3359375 87.66796875 C312.28927957 91.79719546 312.56254157 95.63790249 313.375 99.6875 C314.695 99.6875 316.015 99.6875 317.375 99.6875 C317.65380005 98.90270264 317.65380005 98.90270264 317.93823242 98.10205078 C326.55450616 73.96586333 326.55450616 73.96586333 334.375 63.6875 C337.125 63.75 337.125 63.75 340.375 64.6875 C343.29127343 68.81888735 344.95090221 72.82183254 346.375 77.6875 C347.365 77.6875 348.355 77.6875 349.375 77.6875 C349.560625 76.98625 349.74625 76.285 349.9375 75.5625 C351.88672961 71.66404078 354.72293019 69.05443166 358.375 66.6875 C359.365 66.6875 360.355 66.6875 361.375 66.6875 C361.375 66.0275 361.375 65.3675 361.375 64.6875 C363.355 64.6875 365.335 64.6875 367.375 64.6875 C367.375 65.3475 367.375 66.0075 367.375 66.6875 C368.24125 66.7803125 368.24125 66.7803125 369.125 66.875 C372.48773836 68.08932219 373.53080713 69.63504283 375.375 72.6875 C377.30735202 79.82233822 376.10205513 87.45050512 375.375 94.6875 C374.385 94.6875 373.395 94.6875 372.375 94.6875 C372.10945313 95.48414063 371.84390625 96.28078125 371.5703125 97.1015625 C368.375 106.6875 368.375 106.6875 367.25 109.84375 C366.20983714 113.22427928 366.23434384 116.17109594 366.375 119.6875 C368.685 119.6875 370.995 119.6875 373.375 119.6875 C373.375 118.6975 373.375 117.7075 373.375 116.6875 C375.01953125 115.2578125 375.01953125 115.2578125 377.1875 113.8125 C380.58469074 111.40640533 382.38005666 109.37814517 384.375 105.6875 C385.68194228 104.65324681 387.01300341 103.64809516 388.375 102.6875 C388.40196365 104.47908489 388.42137917 106.27078473 388.4375 108.0625 C388.44910156 109.06023437 388.46070313 110.05796875 388.47265625 111.0859375 C388.375 113.6875 388.375 113.6875 387.375 115.6875 C386.385 115.6875 385.395 115.6875 384.375 115.6875 C384.2925 116.3475 384.21 117.0075 384.125 117.6875 C382.83997822 122.82758712 380.30093596 127.29859606 377.375 131.6875 C376.99000109 133.34299531 376.64706865 135.0097433 376.375 136.6875 C375.385 137.0175 374.395 137.3475 373.375 137.6875 C372.75535162 139.73664454 372.75535162 139.73664454 372.5 142.125 C372.03515625 144.59765625 372.03515625 144.59765625 371.375 146.6875 C368.9375 148.0625 368.9375 148.0625 366.375 148.6875 C365.91867187 149.19023437 365.46234375 149.69296875 364.9921875 150.2109375 C362.8805085 152.13899224 361.75292698 152.03245538 358.9375 151.9375 C358.17566406 151.92203125 357.41382813 151.9065625 356.62890625 151.890625 C353.35218328 151.59532241 351.09764335 151.38337878 348.6875 149.0625 C344.02123563 140.61878352 345.13287721 124.04383625 347.6796875 114.87890625 C347.90914062 114.15574219 348.13859375 113.43257813 348.375 112.6875 C348.81199219 111.18509766 348.81199219 111.18509766 349.2578125 109.65234375 C351.11653425 103.39562291 353.21763535 97.26074825 355.4921875 91.14453125 C356.61296516 88.02519875 357.52123264 84.8891276 358.375 81.6875 C355.36172434 83.19413783 354.76443382 85.71916411 353.375 88.6875 C352.6325 88.64625 351.89 88.605 351.125 88.5625 C348.23967775 88.69365101 346.74966663 89.07611907 344.375 90.6875 C344.045 91.6775 343.715 92.6675 343.375 93.6875 C342.59125 94.450625 341.8075 95.21375 341 96 C338.25762677 98.80766783 337.05808085 101.17029259 335.375 104.6875 C334.88 105.60789062 334.385 106.52828125 333.875 107.4765625 C330.19978046 114.42502444 328.04051381 121.03092933 326.375 128.6875 C326.045 129.6775 325.715 130.6675 325.375 131.6875 C325.13768811 133.48429004 324.90472304 135.2817761 324.6953125 137.08203125 C324.01335781 142.62915049 323.17514542 148.15639766 322.375 153.6875 C319.5 153.8125 319.5 153.8125 316.375 153.6875 C315.715 153.0275 315.055 152.3675 314.375 151.6875 C313.715 151.3575 313.055 151.0275 312.375 150.6875 C311.7421875 147.703125 311.7421875 147.703125 311.25 143.9375 C311.08242188 142.70515625 310.91484375 141.4728125 310.7421875 140.203125 C310.4412738 137.32203634 310.29776526 134.57828586 310.375 131.6875 C309.385 131.6875 308.395 131.6875 307.375 131.6875 C307.045 133.9975 306.715 136.3075 306.375 138.6875 C304.725 138.3575 303.075 138.0275 301.375 137.6875 C301.375 136.0375 301.375 134.3875 301.375 132.6875 C300.715 132.6875 300.055 132.6875 299.375 132.6875 C297.86569817 136.0738251 297.86569817 136.0738251 297.375 139.6875 C297.25 142.625 297.25 142.625 296.375 145.6875 C293.375 147.4375 293.375 147.4375 290.375 148.6875 C290.045 149.3475 289.715 150.0075 289.375 150.6875 C284.35060615 152.36229795 279.47414442 151.92365622 274.375 150.6875 C274.375 150.0275 274.375 149.3675 274.375 148.6875 C273.570625 148.48125 272.76625 148.275 271.9375 148.0625 C271.091875 147.60875 270.24625 147.155 269.375 146.6875 C268.2599287 142.65608839 268.375 138.84466917 268.375 134.6875 C267.385 134.6875 266.395 134.6875 265.375 134.6875 C265.045 136.3375 264.715 137.9875 264.375 139.6875 C264.045 139.6875 263.715 139.6875 263.375 139.6875 C263.375 138.0375 263.375 136.3875 263.375 134.6875 C262.715 134.6875 262.055 134.6875 261.375 134.6875 C261.560625 135.63625 261.74625 136.585 261.9375 137.5625 C262.375 140.6875 262.375 140.6875 261.375 142.6875 C260.385 142.6875 259.395 142.6875 258.375 142.6875 C258.375 143.6775 258.375 144.6675 258.375 145.6875 C251.75 148.6875 251.75 148.6875 248.375 148.6875 C248.375 149.3475 248.375 150.0075 248.375 150.6875 C245.27102241 151.59703762 242.47989778 151.82214149 239.25 151.8125 C238.38117188 151.81507813 237.51234375 151.81765625 236.6171875 151.8203125 C234.375 151.6875 234.375 151.6875 232.375 150.6875 C232.375 150.0275 232.375 149.3675 232.375 148.6875 C231.611875 148.605 230.84875 148.5225 230.0625 148.4375 C227.375 147.6875 227.375 147.6875 225.6875 146.0625 C221.98905073 139.37006799 221.84232161 132.17694371 221.375 124.6875 C220.715 126.0075 220.055 127.3275 219.375 128.6875 C218.715 127.3675 218.055 126.0475 217.375 124.6875 C216.07574209 129.01835971 215.031379 133.20224352 214.375 137.6875 C213.715 137.6875 213.055 137.6875 212.375 137.6875 C212.4678125 139.04875 212.4678125 139.04875 212.5625 140.4375 C212.34649891 144.18151897 211.63775475 144.83810513 209.375 147.6875 C207.65127993 151.53207171 206.40539325 155.48350522 205.375 159.5625 C204.375 162.6875 204.375 162.6875 201.375 164.6875 C201.01202064 166.66497122 201.01202064 166.66497122 201.1875 168.8125 C201.2803125 170.730625 201.2803125 170.730625 201.375 172.6875 C200.715 172.6875 200.055 172.6875 199.375 172.6875 C199.375 172.0275 199.375 171.3675 199.375 170.6875 C198.715 170.6875 198.055 170.6875 197.375 170.6875 C197.08625 171.491875 196.7975 172.29625 196.5 173.125 C195.375 175.6875 195.375 175.6875 193.375 176.6875 C193.4575 177.925 193.54 179.1625 193.625 180.4375 C193.63660446 183.70995691 193.54756333 184.45741555 191.5 187.1875 C189.375 188.6875 189.375 188.6875 187.375 188.6875 C187.045 189.3475 186.715 190.0075 186.375 190.6875 C183.36009443 191.69246852 181.33318308 191.79085303 178.1875 191.75 C177.28644531 191.74097656 176.38539063 191.73195312 175.45703125 191.72265625 C174.42642578 191.70525391 174.42642578 191.70525391 173.375 191.6875 C173.045 190.6975 172.715 189.7075 172.375 188.6875 C170.725 188.3575 169.075 188.0275 167.375 187.6875 C165.64461371 181.68974674 165.03777956 176.29205002 165.0625 170.0625 C165.04638672 169.24265625 165.03027344 168.4228125 165.01367188 167.578125 C165.00966273 162.59075087 165.42355355 158.91146625 168.375 154.6875 C171.36725492 153.24425023 174.08184015 153.74944443 177.3125 154.1875 C182.44090053 154.86440431 182.44090053 154.86440431 187.375 153.6875 C188.58797649 151.4068293 188.58797649 151.4068293 189.375 148.6875 C189.91125 147.82125 190.4475 146.955 191 146.0625 C192.62551814 143.71217224 192.62551814 143.71217224 192.375 140.6875 C191.715 140.6875 191.055 140.6875 190.375 140.6875 C190.16875 141.63625 189.9625 142.585 189.75 143.5625 C188.375 146.6875 188.375 146.6875 185.375 148.0625 C182.375 148.6875 182.375 148.6875 180.375 148.6875 C180.375 149.3475 180.375 150.0075 180.375 150.6875 C173.30298453 151.28682334 173.30298453 151.28682334 169.375 148.75 C166.68985768 144.63837582 166.90711039 141.45997406 167.375 136.6875 C166.385 136.6875 165.395 136.6875 164.375 136.6875 C164.705 137.6775 165.035 138.6675 165.375 139.6875 C164.385 140.0175 163.395 140.3475 162.375 140.6875 C161.36312105 142.34698148 160.3623454 144.01330562 159.375 145.6875 C158.715 145.6875 158.055 145.6875 157.375 145.6875 C157.045 146.6775 156.715 147.6675 156.375 148.6875 C154.725 148.6875 153.075 148.6875 151.375 148.6875 C151.375 149.3475 151.375 150.0075 151.375 150.6875 C149.02229407 151.86385297 147.554248 151.82109359 144.9375 151.8125 C144.15503906 151.81507813 143.37257813 151.81765625 142.56640625 151.8203125 C140.375 151.6875 140.375 151.6875 137.375 150.6875 C131.4035928 139.66336363 132.35751132 125.49314914 135.375 113.6875 C135.705 112.6975 136.035 111.7075 136.375 110.6875 C137.035 110.6875 137.695 110.6875 138.375 110.6875 C138.15328125 110.18605469 137.9315625 109.68460937 137.703125 109.16796875 C137.2070192 105.41764516 138.7349183 102.41295586 140.125 99 C140.68610719 97.56948497 141.24601087 96.13849727 141.8046875 94.70703125 C142.21219238 93.67376709 142.21219238 93.67376709 142.62792969 92.61962891 C144.01937586 89.02096713 145.19469359 85.35956439 146.375 81.6875 C144.13212775 82.585238 144.13212775 82.585238 142.875 85.1875 C141.375 87.6875 141.375 87.6875 139.375 88.6875 C138.570625 88.48125 137.76625 88.275 136.9375 88.0625 C134.39968171 87.39912841 134.39968171 87.39912841 132.6875 88.8125 C131.15623309 91.00002415 130.25798451 93.17439023 129.375 95.6875 C128.715 95.6875 128.055 95.6875 127.375 95.6875 C127.00375 96.4609375 127.00375 96.4609375 126.625 97.25 C125.63791489 99.17481596 124.58097873 101.06380353 123.5 102.9375 C122.78831909 104.18559711 122.08010801 105.43567781 121.375 106.6875 C120.84132813 107.63496094 120.84132813 107.63496094 120.296875 108.6015625 C117.104597 114.58112802 115.89950753 120.4821762 114.8125 127.125 C114.375 129.6875 114.375 129.6875 113.375 131.6875 C113.03319648 133.1810952 112.72561665 134.68262624 112.4375 136.1875 C112.17839844 137.5178125 112.17839844 137.5178125 111.9140625 138.875 C111.64722656 140.2671875 111.64722656 140.2671875 111.375 141.6875 C111.02351231 143.52134883 110.66946782 145.35471002 110.3125 147.1875 C110.15652344 148.0021875 110.00054688 148.816875 109.83984375 149.65625 C109.375 151.6875 109.375 151.6875 108.375 153.6875 C106.725 153.6875 105.075 153.6875 103.375 153.6875 C103.375 153.0275 103.375 152.3675 103.375 151.6875 C102.385 151.3575 101.395 151.0275 100.375 150.6875 C99.59657062 147.28187148 99.27521879 144.17984244 99.375 140.6875 C97.43701737 143.46010299 97.43701737 143.46010299 96.375 145.6875 C95.715 145.6875 95.055 145.6875 94.375 145.6875 C93.715 146.3475 93.055 147.0075 92.375 147.6875 C89.75 148.3125 89.75 148.3125 87.375 148.6875 C87.045 149.6775 86.715 150.6675 86.375 151.6875 C77.59921525 152.60767937 77.59921525 152.60767937 74.59765625 150.3515625 C73.25 148.6875 73.25 148.6875 71.375 145.6875 C72.035 144.0375 72.695 142.3875 73.375 140.6875 C72.385 140.6875 71.395 140.6875 70.375 140.6875 C70.045 137.0575 69.715 133.4275 69.375 129.6875 C68.055 131.3375 66.735 132.9875 65.375 134.6875 C65.045 133.3675 64.715 132.0475 64.375 130.6875 C64.045 131.3475 63.715 132.0075 63.375 132.6875 C62.715 132.6875 62.055 132.6875 61.375 132.6875 C61.045 135.9875 60.715 139.2875 60.375 142.6875 C59.055 142.6875 57.735 142.6875 56.375 142.6875 C56.045 144.3375 55.715 145.9875 55.375 147.6875 C54.385 148.0175 53.395 148.3475 52.375 148.6875 C52.045 149.3475 51.715 150.0075 51.375 150.6875 C46.78884057 152.52196377 40.94072403 152.20940801 36.375 150.6875 C30.58210617 143.03688505 31.30277351 133.4094024 31.40625 124.31640625 C31.36334603 120.70710983 30.91334788 117.25405469 30.375 113.6875 C29.385 115.6675 28.395 117.6475 27.375 119.6875 C27.045 119.6875 26.715 119.6875 26.375 119.6875 C26.375 117.7075 26.375 115.7275 26.375 113.6875 C25.715 114.6775 25.055 115.6675 24.375 116.6875 C23.715 116.6875 23.055 116.6875 22.375 116.6875 C22.189375 118.110625 22.189375 118.110625 22 119.5625 C21.375 122.6875 21.375 122.6875 19.375 124.6875 C18.79591183 126.15242106 18.26027444 127.63471251 17.75 129.125 C15.66972494 134.55902648 12.60327818 138.83832034 9.08203125 143.4375 C7.36025523 145.56338463 7.36025523 145.56338463 6.375 147.6875 C5.715 147.6875 5.055 147.6875 4.375 147.6875 C4.601875 148.76 4.82875 149.8325 5.0625 150.9375 C5.375 154.6875 5.375 154.6875 3.9375 157.125 C3.421875 157.640625 2.90625 158.15625 2.375 158.6875 C2.045 157.3675 1.715 156.0475 1.375 154.6875 C-2.9840077 158.17470616 -3.57052183 161.41510915 -4.625 166.6875 C-4.955 166.0275 -5.285 165.3675 -5.625 164.6875 C-6.285 164.6875 -6.945 164.6875 -7.625 164.6875 C-7.295 165.6775 -6.965 166.6675 -6.625 167.6875 C-7.615 168.0175 -8.605 168.3475 -9.625 168.6875 C-9.955 169.6775 -10.285 170.6675 -10.625 171.6875 C-11.615 172.0175 -12.605 172.3475 -13.625 172.6875 C-13.955 173.3475 -14.285 174.0075 -14.625 174.6875 C-15.285 174.6875 -15.945 174.6875 -16.625 174.6875 C-16.625 175.3475 -16.625 176.0075 -16.625 176.6875 C-18.605 177.0175 -20.585 177.3475 -22.625 177.6875 C-22.625 178.3475 -22.625 179.0075 -22.625 179.6875 C-24.935 180.0175 -27.245 180.3475 -29.625 180.6875 C-29.625 181.3475 -29.625 182.0075 -29.625 182.6875 C-44.39657838 184.39595657 -44.39657838 184.39595657 -48.5 181.25 C-49.625 179.6875 -49.625 179.6875 -49.625 177.6875 C-50.615 177.3575 -51.605 177.0275 -52.625 176.6875 C-55.16565428 171.37126792 -55.1338553 165.65858336 -55.375 159.875 C-55.43042969 158.92818359 -55.48585938 157.98136719 -55.54296875 157.00585938 C-55.8905702 149.35336072 -55.28218267 142.12150337 -51.625 135.25 C-51.13 134.29287109 -51.13 134.29287109 -50.625 133.31640625 C-49.625 131.6875 -49.625 131.6875 -47.625 129.6875 C-47.36474206 127.76638518 -47.36474206 127.76638518 -47.46484375 125.58984375 C-47.47580078 124.78869141 -47.48675781 123.98753906 -47.49804688 123.16210938 C-47.51931641 122.32486328 -47.54058594 121.48761719 -47.5625 120.625 C-47.62422153 117.64179282 -47.64558442 114.67224033 -47.625 111.6875 C-47.13 111.1925 -47.13 111.1925 -46.625 110.6875 C-46.65722656 109.83929688 -46.68945312 108.99109375 -46.72265625 108.1171875 C-46.60578733 104.01275098 -45.47423547 100.61619646 -44.0625 96.8125 C-43.794375 96.07507568 -43.52625 95.33765137 -43.25 94.57788086 C-39.29174601 83.87167025 -35.00593677 73.38669211 -28.890625 63.71484375 C-27.49923528 61.56310406 -27.49923528 61.56310406 -26.125 58.625 C-24.35392351 55.15664187 -22.23992634 52.02608018 -20.046875 48.8125 C-18.91975679 47.12801564 -17.88057009 45.38474766 -16.875 43.625 C-16.25625 42.6659375 -16.25625 42.6659375 -15.625 41.6875 C-14.965 41.6875 -14.305 41.6875 -13.625 41.6875 C-13.3775 40.759375 -13.13 39.83125 -12.875 38.875 C-11.52488981 35.43221901 -10.96200568 34.22071883 -7.625 32.6875 C-1.61236356 32.79298485 -1.61236356 32.79298485 1.078125 35.23046875 C2.93087984 38.74065789 2.69555586 42.07546836 2.5625 45.9375 C2.54219727 47.05511719 2.54219727 47.05511719 2.52148438 48.1953125 C2.48627204 50.02635416 2.43246851 51.85702169 2.375 53.6875 C1.385 54.1825 1.385 54.1825 0.375 54.6875 C0.375 52.3775 0.375 50.0675 0.375 47.6875 C-2.48953858 51.09766497 -3.97203566 54.59444544 -5.625 58.6875 C-6.285 58.6875 -6.945 58.6875 -7.625 58.6875 C-7.78162109 59.77417969 -7.78162109 59.77417969 -7.94140625 60.8828125 C-8.68946892 63.95200677 -9.84058566 65.92700274 -11.5625 68.5625 C-13.45799161 71.58626042 -14.96949642 74.21374386 -15.8125 77.6875 C-16.625 80.6875 -16.625 80.6875 -19.625 82.6875 C-20.71826754 85.12437475 -20.71826754 85.12437475 -21.5625 87.9375 C-22.68868866 91.25183468 -23.61445782 93.67234562 -25.625 96.5625 C-28.81316659 101.54401029 -30.00492636 107.01724226 -31.625 112.6875 C-25.19 111.6975 -25.19 111.6975 -18.625 110.6875 C-18.625 109.6975 -18.625 108.7075 -18.625 107.6875 C-15.565229 106.84392037 -12.5017954 106.0144798 -9.4375 105.1875 C-8.14102539 104.82978516 -8.14102539 104.82978516 -6.81835938 104.46484375 C-5.97724609 104.23925781 -5.13613281 104.01367188 -4.26953125 103.78125 C-3.49971924 103.57177734 -2.72990723 103.36230469 -1.93676758 103.14648438 C0.55323523 102.65211271 2.84281499 102.60916481 5.375 102.6875 C5.375 101.6975 5.375 100.7075 5.375 99.6875 C5.97828125 99.56375 6.5815625 99.44 7.203125 99.3125 C11.68214507 98.15662385 13.87085907 97.36877152 16.6875 93.5625 C19.51350542 86.62711972 20.83789229 78.9950296 22.375 71.6875 C22.55675781 70.83542969 22.73851562 69.98335938 22.92578125 69.10546875 C24.01643603 63.23490084 24.49326976 57.77148173 24.0625 51.8125 C24.01544922 51.11286133 23.96839844 50.41322266 23.91992188 49.69238281 C23.53050052 44.50730963 22.71241492 39.70280593 21.375 34.6875 C21.25125 33.97078125 21.1275 33.2540625 21 32.515625 C20.79375 31.91234375 20.5875 31.3090625 20.375 30.6875 C18.89 30.1925 18.89 30.1925 17.375 29.6875 C17.375 29.0275 17.375 28.3675 17.375 27.6875 C16.385 27.6875 15.395 27.6875 14.375 27.6875 C14.375 28.6775 14.375 29.6675 14.375 30.6875 C11.075 30.3575 7.775 30.0275 4.375 29.6875 C4.375 29.0275 4.375 28.3675 4.375 27.6875 C2.395 27.6875 0.415 27.6875 -1.625 27.6875 C-1.625 28.3475 -1.625 29.0075 -1.625 29.6875 C-4.925 30.0175 -8.225 30.3475 -11.625 30.6875 C-11.625 31.3475 -11.625 32.0075 -11.625 32.6875 C-15.585 33.6775 -19.545 34.6675 -23.625 35.6875 C-23.625 36.3475 -23.625 37.0075 -23.625 37.6875 C-25.15625 39.1953125 -25.15625 39.1953125 -27.125 40.8125 C-27.7746875 41.35132813 -28.424375 41.89015625 -29.09375 42.4453125 C-29.5990625 42.85523438 -30.104375 43.26515625 -30.625 43.6875 C-30.955 42.3675 -31.285 41.0475 -31.625 39.6875 C-32.615 39.6875 -33.605 39.6875 -34.625 39.6875 C-35.058125 41.1415625 -35.058125 41.1415625 -35.5 42.625 C-36.625 45.6875 -36.625 45.6875 -38.625 46.6875 C-43.26854323 54.11716917 -46.96167222 60.76568605 -46.625 69.6875 C-47.625 73.125 -47.625 73.125 -48.625 75.6875 C-50.275 75.6875 -51.925 75.6875 -53.625 75.6875 C-54.4716034 74.29967515 -55.30175339 72.90180603 -56.125 71.5 C-56.5890625 70.72269531 -57.053125 69.94539063 -57.53125 69.14453125 C-58.74314447 66.42209688 -58.66348558 64.62683582 -58.625 61.6875 C-59.285 60.6975 -59.945 59.7075 -60.625 58.6875 C-62.57266056 49.86790502 -63.27170062 38.65327249 -58.625 30.6875 C-57.07038923 28.34102757 -55.43306033 26.06830693 -53.75 23.8125 C-53.32734863 23.24031738 -52.90469727 22.66813477 -52.46923828 22.07861328 C-49.78725313 18.64003899 -47.67796003 17.14204663 -43.625 15.6875 C-43.295 14.6975 -42.965 13.7075 -42.625 12.6875 C-41.965 12.6875 -41.305 12.6875 -40.625 12.6875 C-40.625 12.0275 -40.625 11.3675 -40.625 10.6875 C-39.19070999 10.01395501 -37.75242943 9.34890299 -36.3125 8.6875 C-35.51199219 8.31625 -34.71148438 7.945 -33.88671875 7.5625 C-31.625 6.6875 -31.625 6.6875 -28.625 6.6875 C-28.625 6.0275 -28.625 5.3675 -28.625 4.6875 C-27.635 4.6875 -26.645 4.6875 -25.625 4.6875 C-25.625 4.0275 -25.625 3.3675 -25.625 2.6875 C-16.92937579 0.31596612 -8.96635209 -0.46744929 0 0 Z " fill="#7F7F7F" transform="translate(547.625,55.3125)"/>
<path d="M0 0 C0.96421875 -0.01611328 1.9284375 -0.03222656 2.921875 -0.04882812 C9.90397158 -0.05350781 15.990173 1.16927735 22.625 3.3125 C22.74174072 3.9523584 22.85848145 4.5922168 22.97875977 5.25146484 C23.19201904 5.93160645 23.40527832 6.61174805 23.625 7.3125 C25.28156439 8.00388748 26.94965678 8.66794798 28.625 9.3125 C39.25878051 20.4105412 41.89393975 36.97402553 41.58984375 51.8203125 C41.52871386 53.27651963 41.45740173 54.73234159 41.375 56.1875 C41.31759644 57.21375488 41.31759644 57.21375488 41.2590332 58.26074219 C40.88535234 63.05214766 40.88535234 63.05214766 38.625 65.3125 C37.97732207 67.88311311 37.97732207 67.88311311 37.625 70.3125 C36.965 70.3125 36.305 70.3125 35.625 70.3125 C34.21122659 72.95154371 33.25259865 75.38370629 32.625 78.3125 C33.615 78.3125 34.605 78.3125 35.625 78.3125 C35.955 77.6525 36.285 76.9925 36.625 76.3125 C36.3125 78.25 36.3125 78.25 35.625 80.3125 C34.14 80.8075 34.14 80.8075 32.625 81.3125 C31.39979736 84.32097418 31.39979736 84.32097418 30.625 87.3125 C29.965 87.3125 29.305 87.3125 28.625 87.3125 C27.635 89.2925 27.635 89.2925 26.625 91.3125 C25.635 91.3125 24.645 91.3125 23.625 91.3125 C23.625 92.3025 23.625 93.2925 23.625 94.3125 C21.30279882 97.53777942 18.38036752 98.35524946 14.625 99.3125 C11.25 99.4375 11.25 99.4375 8.625 99.3125 C9.00011719 99.82296875 9.37523438 100.3334375 9.76171875 100.859375 C14.07824622 106.99167095 16.95196858 113.32240456 19.625 120.3125 C23.53307011 116.59000864 25.43406509 113.05110924 26.03125 107.61328125 C26.53354505 103.17464359 27.86579286 99.32483418 29.5 95.1875 C29.75652344 94.51074219 30.01304687 93.83398438 30.27734375 93.13671875 C32.82856148 86.50868072 35.33255856 81.21768963 40.625 76.3125 C41.5840625 75.3225 41.5840625 75.3225 42.5625 74.3125 C49.78125 67.3125 49.78125 67.3125 53.625 67.3125 C53.625 66.6525 53.625 65.9925 53.625 65.3125 C63.10623436 63.84127398 63.10623436 63.84127398 67.625 65.3125 C69.47733285 67.72053271 70.625 69.23991925 70.625 72.3125 C74.01083483 71.75167432 74.01083483 71.75167432 77.625 70.3125 C78.285 69.28125 78.945 68.25 79.625 67.1875 C80.285 66.23875 80.945 65.29 81.625 64.3125 C85.375 63.9375 85.375 63.9375 88.625 64.3125 C88.955 65.3025 89.285 66.2925 89.625 67.3125 C90.285 67.3125 90.945 67.3125 91.625 67.3125 C92.52738747 70.01966242 92.74351302 71.55026768 92.72265625 74.32421875 C92.71943359 75.08154297 92.71621094 75.83886719 92.71289062 76.61914062 C92.70451172 77.40482422 92.69613281 78.19050781 92.6875 79 C92.68298828 79.79728516 92.67847656 80.59457031 92.67382812 81.41601562 C92.6620585 83.38154257 92.64412348 85.34703085 92.625 87.3125 C91.635 85.9925 90.645 84.6725 89.625 83.3125 C89.28726563 84.21613281 88.94953125 85.11976563 88.6015625 86.05078125 C88.15554687 87.23027344 87.70953125 88.40976563 87.25 89.625 C86.58871094 91.38263672 86.58871094 91.38263672 85.9140625 93.17578125 C84.625 96.3125 84.625 96.3125 82.625 99.3125 C82.24000109 100.96799531 81.89706865 102.6347433 81.625 104.3125 C80.965 104.3125 80.305 104.3125 79.625 104.3125 C78.79877329 109.91813042 78.55704344 114.73539352 79.625 120.3125 C82.265 120.3125 84.905 120.3125 87.625 120.3125 C87.625 119.3225 87.625 118.3325 87.625 117.3125 C88.615 116.6525 89.605 115.9925 90.625 115.3125 C91.25768709 112.86376664 91.73828936 110.54986106 92.125 108.0625 C92.93195324 102.99164568 94.2485598 98.88841144 96.625 94.3125 C97.00028683 92.65477605 97.3380443 90.9877747 97.625 89.3125 C101.50917499 77.44053013 107.73935432 65.7047245 114.625 55.3125 C115.40617187 54.04212891 115.40617187 54.04212891 116.203125 52.74609375 C126.71460174 35.7241303 126.71460174 35.7241303 131.58203125 33.36328125 C133.4375 33 133.4375 33 136.625 33.3125 C138.77621302 34.90938153 139.521705 35.89710653 140.171875 38.51171875 C140.61834872 43.9810218 140.52794156 48.89485063 139.625 54.3125 C138.635 52.3325 138.635 52.3325 137.625 50.3125 C134.65266235 54.51477047 132.53702643 58.53243392 130.625 63.3125 C129.965 63.3125 129.305 63.3125 128.625 63.3125 C128.295 64.4675 127.965 65.6225 127.625 66.8125 C125.7720218 72.46182379 123.05393339 77.64125725 120.31835938 82.90234375 C118.32589572 86.42173971 118.32589572 86.42173971 117.625 90.3125 C116.965 90.3125 116.305 90.3125 115.625 90.3125 C114.88667392 94.63698133 114.23325035 98.96785464 113.625 103.3125 C112.965 103.3125 112.305 103.3125 111.625 103.3125 C111.6559375 104.42625 111.6559375 104.42625 111.6875 105.5625 C111.625 108.3125 111.625 108.3125 111.0625 110.125 C110.3656048 113.60947602 111.09998889 116.81242595 111.625 120.3125 C114.595 120.3125 117.565 120.3125 120.625 120.3125 C120.625 119.3225 120.625 118.3325 120.625 117.3125 C121.945 116.9825 123.265 116.6525 124.625 116.3125 C124.68558594 115.62542969 124.74617187 114.93835938 124.80859375 114.23046875 C124.89238281 113.32941406 124.97617188 112.42835938 125.0625 111.5 C125.14371094 110.60667969 125.22492188 109.71335937 125.30859375 108.79296875 C125.625 106.3125 125.625 106.3125 126.625 103.3125 C127.285 103.3125 127.945 103.3125 128.625 103.3125 C128.42261719 102.75820312 128.22023437 102.20390625 128.01171875 101.6328125 C127.5084967 98.61348018 128.25413223 96.98911274 129.4375 94.1875 C129.79457031 93.31867188 130.15164062 92.44984375 130.51953125 91.5546875 C131.625 89.3125 131.625 89.3125 133.625 87.3125 C133.893125 86.57 134.16125 85.8275 134.4375 85.0625 C135.948186 81.56406927 138.12182517 79.17327123 140.625 76.3125 C141.305625 75.384375 141.98625 74.45625 142.6875 73.5 C144.71287702 71.21328401 145.64168487 70.63214091 148.625 70.3125 C148.625 69.6525 148.625 68.9925 148.625 68.3125 C149.945 67.9825 151.265 67.6525 152.625 67.3125 C152.625 66.6525 152.625 65.9925 152.625 65.3125 C154.54083647 65.1166991 156.45772539 64.93117786 158.375 64.75 C159.97601563 64.59337891 159.97601563 64.59337891 161.609375 64.43359375 C164.26641204 64.32689926 166.12460572 64.49319605 168.625 65.3125 C168.625 65.9725 168.625 66.6325 168.625 67.3125 C169.223125 67.374375 169.82125 67.43625 170.4375 67.5 C173.54766847 68.65520543 174.22917708 70.38127187 175.625 73.3125 C175.625 74.3025 175.625 75.2925 175.625 76.3125 C176.285 76.3125 176.945 76.3125 177.625 76.3125 C177.625 76.9725 177.625 77.6325 177.625 78.3125 C178.285 78.3125 178.945 78.3125 179.625 78.3125 C179.625 77.6525 179.625 76.9925 179.625 76.3125 C180.285 76.3125 180.945 76.3125 181.625 76.3125 C181.7384375 75.74144531 181.851875 75.17039062 181.96875 74.58203125 C183.16188631 70.45576817 185.31241922 67.05935196 188.625 64.3125 C191.82469209 63.92165813 194.54195809 64.43554586 197.625 65.3125 C197.625 65.9725 197.625 66.6325 197.625 67.3125 C198.285 67.3125 198.945 67.3125 199.625 67.3125 C200.46523188 71.66582736 200.73270995 75.75692519 200.6875 80.1875 C200.67847656 81.33992188 200.66945313 82.49234375 200.66015625 83.6796875 C200.64275391 84.98292969 200.64275391 84.98292969 200.625 86.3125 C199.965 85.3225 199.305 84.3325 198.625 83.3125 C196.30541516 87.25579423 194.21007721 91.01014757 192.625 95.3125 C191.95833333 96.97916667 191.29166667 98.64583333 190.625 100.3125 C189.965 100.3125 189.305 100.3125 188.625 100.3125 C187.61887911 106.92415154 186.625 113.61611675 186.625 120.3125 C189.595 120.3125 192.565 120.3125 195.625 120.3125 C195.625 119.3225 195.625 118.3325 195.625 117.3125 C196.285 117.3125 196.945 117.3125 197.625 117.3125 C197.66367187 116.40757812 197.66367187 116.40757812 197.703125 115.484375 C198.17501134 108.83506748 198.17501134 108.83506748 200.5625 106.0625 C201.243125 105.485 201.92375 104.9075 202.625 104.3125 C203.32711894 102.66045544 203.99471413 100.99326231 204.625 99.3125 C205.3675 98.44625 205.3675 98.44625 206.125 97.5625 C208.41377062 94.12934406 208.89546845 90.32921487 209.625 86.3125 C208.14 87.3025 208.14 87.3025 206.625 88.3125 C206.625 80.3925 206.625 72.4725 206.625 64.3125 C205.305 64.6425 203.985 64.9725 202.625 65.3125 C202.295 65.9725 201.965 66.6325 201.625 67.3125 C198.45518868 48.49174528 198.45518868 48.49174528 202.625 40.3125 C204.625 38.3125 204.625 38.3125 208 37.8125 C211.625 38.3125 211.625 38.3125 214 40.875 C217.50953518 48.29901672 216.47241192 55.37290214 215.625 63.3125 C214.305 62.9825 212.985 62.6525 211.625 62.3125 C212.285 63.26125 212.945 64.21 213.625 65.1875 C215.625 68.3125 215.625 68.3125 215.625 70.3125 C223.43112754 71.64120256 230.81887246 71.64120256 238.625 70.3125 C238.625 69.6525 238.625 68.9925 238.625 68.3125 C240.275 67.9825 241.925 67.6525 243.625 67.3125 C243.625 66.6525 243.625 65.9925 243.625 65.3125 C244.945 65.3125 246.265 65.3125 247.625 65.3125 C247.625 65.9725 247.625 66.6325 247.625 67.3125 C248.615 67.6425 249.605 67.9725 250.625 68.3125 C253.80496663 71.49246663 254.55040233 73.2807569 254.87890625 77.82421875 C254.87536275 81.32873906 254.79760351 84.81248443 254.625 88.3125 C253.635 87.9825 252.645 87.6525 251.625 87.3125 C251.026875 88.385 250.42875 89.4575 249.8125 90.5625 C248.65461289 92.60918778 247.57131368 94.37692358 246.0625 96.1875 C241.00674448 103.66122555 240.98528547 112.57868322 240.625 121.3125 C245.37159999 122.26314958 248.09897657 122.14446187 252.625 120.3125 C252.769375 119.095625 252.91375 117.87875 253.0625 116.625 C253.66985892 111.505832 254.76855309 106.59637793 256.125 101.625 C256.3828125 100.67238281 256.640625 99.71976562 256.90625 98.73828125 C257.625 96.3125 257.625 96.3125 258.625 94.3125 C259.285 94.3125 259.945 94.3125 260.625 94.3125 C260.42519531 93.74015625 260.22539062 93.1678125 260.01953125 92.578125 C259.53018614 89.76802439 260.08062357 88.60868326 261.3125 86.0625 C261.69148438 85.27359375 262.07046875 84.4846875 262.4609375 83.671875 C262.84507812 82.89328125 263.22921875 82.1146875 263.625 81.3125 C263.92664063 80.63703125 264.22828125 79.9615625 264.5390625 79.265625 C267.06552732 73.77331018 270.17271532 68.45740938 274.625 64.3125 C278.3125 63.5 278.3125 63.5 281.625 64.3125 C284.25960307 66.18445482 285.38040606 67.40446497 286.22265625 70.53125 C286.69032055 73.76403623 286.72048502 76.8594835 286.6875 80.125 C286.67847656 81.28644531 286.66945313 82.44789063 286.66015625 83.64453125 C286.64275391 84.96517578 286.64275391 84.96517578 286.625 86.3125 C285.635 85.3225 284.645 84.3325 283.625 83.3125 C283.29886719 84.12074219 282.97273438 84.92898437 282.63671875 85.76171875 C282.19972656 86.83035156 281.76273437 87.89898437 281.3125 89 C280.88324219 90.05574219 280.45398438 91.11148438 280.01171875 92.19921875 C278.72684936 95.08384102 277.42205251 97.71568686 275.625 100.3125 C274.965 100.3125 274.305 100.3125 273.625 100.3125 C273.480625 101.34375 273.33625 102.375 273.1875 103.4375 C272.8534143 105.73897928 272.47431622 108.03578213 272 110.3125 C271.56047297 113.82871627 271.99970282 116.83862676 272.625 120.3125 C275.265 120.3125 277.905 120.3125 280.625 120.3125 C280.625 119.3225 280.625 118.3325 280.625 117.3125 C281.57503906 116.96703125 282.52507812 116.6215625 283.50390625 116.265625 C286.90331504 114.57957842 286.90331504 114.57957842 287.83984375 111.046875 C288.10000428 109.72239084 288.3397763 108.39379108 288.5625 107.0625 C291.18314636 94.53766699 296.71839145 80.01754139 306.70703125 71.546875 C308.625 70.3125 308.625 70.3125 310.625 70.3125 C310.955 69.3225 311.285 68.3325 311.625 67.3125 C312.285 67.3125 312.945 67.3125 313.625 67.3125 C313.625 66.6525 313.625 65.9925 313.625 65.3125 C321.00322 63.51966149 326.31128168 63.15435361 333.625 65.3125 C333.625 65.9725 333.625 66.6325 333.625 67.3125 C334.615 67.6425 335.605 67.9725 336.625 68.3125 C339.55076535 72.85837373 339.98435846 76.40783925 339.875 81.75 C339.85953125 83.00683594 339.8440625 84.26367188 339.828125 85.55859375 C339.62964597 89.22663894 339.36787552 92.71309125 338.625 96.3125 C335.67548089 98.92684649 333.74457345 100.18810295 329.8125 100.625 C327.625 100.3125 327.625 100.3125 326.625 99.3125 C326.53848389 97.89679877 326.51795096 96.476905 326.52734375 95.05859375 C326.53056641 94.20458984 326.53378906 93.35058594 326.53710938 92.47070312 C326.54548828 91.57287109 326.55386719 90.67503906 326.5625 89.75 C326.56701172 88.84830078 326.57152344 87.94660156 326.57617188 87.01757812 C326.58799775 84.78248686 326.6044778 82.54752563 326.625 80.3125 C325.965 79.9825 325.305 79.6525 324.625 79.3125 C324.295 80.6325 323.965 81.9525 323.625 83.3125 C322.635 83.3125 321.645 83.3125 320.625 83.3125 C320.295 84.3025 319.965 85.2925 319.625 86.3125 C319.295 85.3225 318.965 84.3325 318.625 83.3125 C317.635 83.3125 316.645 83.3125 315.625 83.3125 C315.625 84.9625 315.625 86.6125 315.625 88.3125 C314.4803125 88.5290625 314.4803125 88.5290625 313.3125 88.75 C310.54327092 89.2757594 310.54327092 89.2757594 307.625 90.3125 C307.686875 91.488125 307.686875 91.488125 307.75 92.6875 C307.625 95.3125 307.625 95.3125 305.625 97.3125 C305.02166594 99.96483812 304.56043029 102.50335206 304.1875 105.1875 C304.05923828 105.90808594 303.93097656 106.62867188 303.79882812 107.37109375 C303.40486727 109.76641872 303.40486727 109.76641872 303.625 113.3125 C305.87277984 115.70880098 305.87277984 115.70880098 308.625 117.3125 C309.285 118.3025 309.945 119.2925 310.625 120.3125 C313.98003476 120.67808117 313.98003476 120.67808117 317.75 120.5 C319.03132813 120.47292969 320.31265625 120.44585937 321.6328125 120.41796875 C322.62023437 120.38316406 323.60765625 120.34835938 324.625 120.3125 C324.625 119.3225 324.625 118.3325 324.625 117.3125 C325.38425781 116.93738281 326.14351563 116.56226563 326.92578125 116.17578125 C327.91964844 115.66402344 328.91351563 115.15226562 329.9375 114.625 C330.92363281 114.12613281 331.90976562 113.62726563 332.92578125 113.11328125 C335.92034376 111.11546169 336.88598837 109.40569997 338.625 106.3125 C340.605 104.8275 340.605 104.8275 342.625 103.3125 C342.625 109.2525 342.625 115.1925 342.625 121.3125 C341.965 121.6425 341.305 121.9725 340.625 122.3125 C340.295 120.6625 339.965 119.0125 339.625 117.3125 C339.33625 118.281875 339.0475 119.25125 338.75 120.25 C337.625 123.3125 337.625 123.3125 335.625 124.3125 C334.89806096 126.29138961 334.22683749 128.29204558 333.625 130.3125 C332.965 130.3125 332.305 130.3125 331.625 130.3125 C331.955 132.6225 332.285 134.9325 332.625 137.3125 C331.965 137.3125 331.305 137.3125 330.625 137.3125 C330.295 138.3025 329.965 139.2925 329.625 140.3125 C327.5625 141 327.5625 141 325.625 141.3125 C325.625 138.3125 325.625 138.3125 327.125 136.625 C327.62 136.191875 328.115 135.75875 328.625 135.3125 C327.635 135.3125 326.645 135.3125 325.625 135.3125 C325.315625 135.93125 325.00625 136.55 324.6875 137.1875 C324 138.5625 323.3125 139.9375 322.625 141.3125 C322.955 141.9725 323.285 142.6325 323.625 143.3125 C322.9375 145.375 322.9375 145.375 321.625 147.3125 C319.875 148 319.875 148 317.625 148.3125 C316.5525 148.498125 315.48 148.68375 314.375 148.875 C313.4675 149.019375 312.56 149.16375 311.625 149.3125 C311.625 149.9725 311.625 150.6325 311.625 151.3125 C307.665 151.3125 303.705 151.3125 299.625 151.3125 C299.295 150.6525 298.965 149.9925 298.625 149.3125 C297.201875 148.9721875 297.201875 148.9721875 295.75 148.625 C292.625 147.3125 292.625 147.3125 290.6875 143.875 C289.625 140.3125 289.625 140.3125 290.625 137.3125 C290.23102665 134.67445411 290.23102665 134.67445411 289.625 132.3125 C288.965 132.3125 288.305 132.3125 287.625 132.3125 C287.295 134.6225 286.965 136.9325 286.625 139.3125 C285.965 137.9925 285.305 136.6725 284.625 135.3125 C283.965 135.3125 283.305 135.3125 282.625 135.3125 C282.563125 136.55 282.50125 137.7875 282.4375 139.0625 C282.01914739 142.35121639 281.77997029 143.14424655 279.4375 145.6875 C276.55055132 147.3555148 273.83138709 148.4176943 270.625 149.3125 C270.625 149.9725 270.625 150.6325 270.625 151.3125 C261.73971542 151.9229394 261.73971542 151.9229394 258 149.875 C255.96147426 146.07592931 256.30021971 142.53464379 256.625 138.3125 C255.965 138.3125 255.305 138.3125 254.625 138.3125 C254.295 139.3025 253.965 140.2925 253.625 141.3125 C252.305 141.3125 250.985 141.3125 249.625 141.3125 C249.356875 142.446875 249.08875 143.58125 248.8125 144.75 C248.420625 145.925625 248.02875 147.10125 247.625 148.3125 C246.635 148.6425 245.645 148.9725 244.625 149.3125 C244.295 149.9725 243.965 150.6325 243.625 151.3125 C240.76208937 152.30665358 238.07570778 152.44769698 235.0625 152.4375 C234.29808594 152.44007813 233.53367187 152.44265625 232.74609375 152.4453125 C229.72882272 152.25638577 228.04970375 151.78656399 226.01171875 149.51171875 C220.02418073 140.01598943 221.59203859 124.02254048 223.8125 113.4375 C225.17010813 108.26565952 227.15068774 103.57046016 229.484375 98.76953125 C230.92557349 95.66503177 231.81387167 92.63075227 232.625 89.3125 C229.37650023 91.03476496 229.37650023 91.03476496 228.625 94.3125 C225.41048731 95.91975635 222.18887464 95.36998185 218.625 95.3125 C217.965 93.6625 217.305 92.0125 216.625 90.3125 C214.04645876 91.60177062 213.30971225 93.19728773 212.21875 95.8046875 C211.11699923 100.45813484 211.47526023 105.23454235 211.6171875 109.984375 C211.625 113.3125 211.625 113.3125 210.625 116.3125 C209.635 116.3125 208.645 116.3125 207.625 116.3125 C207.7075 117.055 207.79 117.7975 207.875 118.5625 C207.55096268 122.12691057 206.2115287 122.96111027 203.625 125.3125 C203.295 126.3025 202.965 127.2925 202.625 128.3125 C201.965 128.3125 201.305 128.3125 200.625 128.3125 C200.4703125 129.2096875 200.4703125 129.2096875 200.3125 130.125 C199.53623545 132.59493264 198.55411079 133.63501235 196.625 135.3125 C196.955 136.3025 197.285 137.2925 197.625 138.3125 C198.285 136.6625 198.945 135.0125 199.625 133.3125 C200.615 133.3125 201.605 133.3125 202.625 133.3125 C201.21668351 137.79350701 199.03676733 140.13876295 195.625 143.3125 C194.8 144.22 193.975 145.1275 193.125 146.0625 C190.49294823 148.43134659 189.09684157 149.01491358 185.625 149.3125 C185.625 149.9725 185.625 150.6325 185.625 151.3125 C182.325 151.3125 179.025 151.3125 175.625 151.3125 C175.625 150.6525 175.625 149.9925 175.625 149.3125 C174.4184375 148.94125 174.4184375 148.94125 173.1875 148.5625 C170.625 147.3125 170.625 147.3125 169.8125 145.1875 C169.750625 144.56875 169.68875 143.95 169.625 143.3125 C170.285 143.3125 170.945 143.3125 171.625 143.3125 C170.53715032 140.06266865 170.53715032 140.06266865 168.625 137.3125 C168.295 138.3025 167.965 139.2925 167.625 140.3125 C165.645 140.6425 163.665 140.9725 161.625 141.3125 C161.625 142.3025 161.625 143.2925 161.625 144.3125 C160.965 144.3125 160.305 144.3125 159.625 144.3125 C159.295 145.3025 158.965 146.2925 158.625 147.3125 C157.305 147.3125 155.985 147.3125 154.625 147.3125 C154.625 147.9725 154.625 148.6325 154.625 149.3125 C153.635 149.3125 152.645 149.3125 151.625 149.3125 C151.625 149.9725 151.625 150.6325 151.625 151.3125 C148.70424603 152.15080296 146.09835217 152.44777361 143.0625 152.4375 C142.29808594 152.44007813 141.53367187 152.44265625 140.74609375 152.4453125 C138.625 152.3125 138.625 152.3125 135.625 151.3125 C135.625 150.6525 135.625 149.9925 135.625 149.3125 C134.4803125 149.126875 134.4803125 149.126875 133.3125 148.9375 C130.625 148.3125 130.625 148.3125 127.625 146.3125 C127.4375 143.6875 127.4375 143.6875 127.625 141.3125 C128.285 140.9825 128.945 140.6525 129.625 140.3125 C128.965 139.6525 128.305 138.9925 127.625 138.3125 C127.625 137.3225 127.625 136.3325 127.625 135.3125 C126.965 135.3125 126.305 135.3125 125.625 135.3125 C125.625 136.9625 125.625 138.6125 125.625 140.3125 C124.635 140.3125 123.645 140.3125 122.625 140.3125 C122.295 139.6525 121.965 138.9925 121.625 138.3125 C120.965 138.3125 120.305 138.3125 119.625 138.3125 C119.9653125 139.3953125 119.9653125 139.3953125 120.3125 140.5 C120.625 143.3125 120.625 143.3125 119.5 146.0625 C117.625 148.3125 117.625 148.3125 114.9375 149.125 C114.174375 149.186875 113.41125 149.24875 112.625 149.3125 C112.625 149.9725 112.625 150.6325 112.625 151.3125 C109.63502175 152.80748913 106.92457225 152.42827446 103.625 152.3125 C102.635 151.9825 101.645 151.6525 100.625 151.3125 C100.625 150.6525 100.625 149.9925 100.625 149.3125 C99.861875 149.415625 99.09875 149.51875 98.3125 149.625 C95.625 149.3125 95.625 149.3125 93.75 147.1875 C92.40813239 143.75828278 92.72422639 141.83370592 93.625 138.3125 C92.635 138.3125 91.645 138.3125 90.625 138.3125 C90.295 139.3025 89.965 140.2925 89.625 141.3125 C88.965 141.3125 88.305 141.3125 87.625 141.3125 C86.4480145 142.84927959 86.4480145 142.84927959 85.3125 144.75 C82.97916667 148.19444444 82.97916667 148.19444444 79.8125 149.25 C79.090625 149.270625 78.36875 149.29125 77.625 149.3125 C77.625 149.9725 77.625 150.6325 77.625 151.3125 C74.655 151.3125 71.685 151.3125 68.625 151.3125 C68.625 150.6525 68.625 149.9925 68.625 149.3125 C68.00625 149.044375 67.3875 148.77625 66.75 148.5 C64.625 147.3125 64.625 147.3125 62.625 144.3125 C62.2109375 141.75390625 62.2109375 141.75390625 62 138.875 C61.92523438 137.92753906 61.85046875 136.98007813 61.7734375 136.00390625 C61.65057826 133.77627418 61.625 131.54351749 61.625 129.3125 C60.965 129.6425 60.305 129.9725 59.625 130.3125 C59.295 131.3025 58.965 132.2925 58.625 133.3125 C57.965 133.3125 57.305 133.3125 56.625 133.3125 C56.295 132.3225 55.965 131.3325 55.625 130.3125 C55.00625 131.1375 54.3875 131.9625 53.75 132.8125 C53.04875 133.6375 52.3475 134.4625 51.625 135.3125 C50.965 135.3125 50.305 135.3125 49.625 135.3125 C49.955 136.3025 50.285 137.2925 50.625 138.3125 C49.635 138.6425 48.645 138.9725 47.625 139.3125 C47.625 139.9725 47.625 140.6325 47.625 141.3125 C48.615 141.3125 49.605 141.3125 50.625 141.3125 C50.625 140.6525 50.625 139.9925 50.625 139.3125 C51.285 138.9825 51.945 138.6525 52.625 138.3125 C52.955 137.3225 53.285 136.3325 53.625 135.3125 C54.285 135.3125 54.945 135.3125 55.625 135.3125 C54.72953488 140.10587213 52.08534427 143.00399531 48.625 146.3125 C43.59274194 149.3125 43.59274194 149.3125 40.625 149.3125 C40.625 149.9725 40.625 150.6325 40.625 151.3125 C35 152.4375 35 152.4375 31.625 151.3125 C31.625 150.6525 31.625 149.9925 31.625 149.3125 C29.975 148.6525 28.325 147.9925 26.625 147.3125 C26.625 145.9925 26.625 144.6725 26.625 143.3125 C25.965 143.3125 25.305 143.3125 24.625 143.3125 C24.625 140.6725 24.625 138.0325 24.625 135.3125 C23.965 136.6325 23.305 137.9525 22.625 139.3125 C21.965 137.3325 21.305 135.3525 20.625 133.3125 C20.44324219 134.88451172 20.44324219 134.88451172 20.2578125 136.48828125 C20.08896055 137.86723886 19.91966659 139.24614239 19.75 140.625 C19.67136719 141.31529297 19.59273438 142.00558594 19.51171875 142.71679688 C18.91807991 147.44307532 17.8036197 149.94378035 14.6875 153.5625 C12.46429157 156.28703442 12.46429157 156.28703442 11.1875 159.8125 C9.50986917 163.57039306 7.74936353 165.66880778 4.625 168.3125 C3.965 168.3125 3.305 168.3125 2.625 168.3125 C2.975625 168.89 3.32625 169.4675 3.6875 170.0625 C4.625 172.3125 4.625 172.3125 4.625 174.4375 C3.625 176.3125 3.625 176.3125 0.5625 177.5625 C-0.406875 177.81 -1.37625 178.0575 -2.375 178.3125 C-2.375 178.9725 -2.375 179.6325 -2.375 180.3125 C-4.685 180.6425 -6.995 180.9725 -9.375 181.3125 C-9.375 181.9725 -9.375 182.6325 -9.375 183.3125 C-13.20687511 184.5897917 -16.82208317 184.45760286 -20.8125 184.4375 C-21.57626953 184.44136719 -22.34003906 184.44523438 -23.12695312 184.44921875 C-23.86751953 184.44792969 -24.60808594 184.44664062 -25.37109375 184.4453125 C-26.04325928 184.44418457 -26.7154248 184.44305664 -27.40795898 184.44189453 C-30.49086127 184.23909719 -32.71457048 183.85499568 -35.125 181.875 C-36.375 180.3125 -36.375 180.3125 -36.375 178.3125 C-37.365 177.9825 -38.355 177.6525 -39.375 177.3125 C-40.5078125 175.67578125 -40.5078125 175.67578125 -41.5 173.625 C-41.83257812 172.96113281 -42.16515625 172.29726562 -42.5078125 171.61328125 C-44.89285354 165.2854021 -44.52560395 158.661294 -44.5 152 C-44.50580078 150.50823242 -44.50580078 150.50823242 -44.51171875 148.98632812 C-44.49291365 134.66624094 -44.49291365 134.66624094 -42.375 128.3125 C-42.106875 127.19875 -41.83875 126.085 -41.5625 124.9375 C-40.09367892 118.98548624 -38.22214755 113.15581112 -36.375 107.3125 C-36.11589844 106.48105469 -35.85679688 105.64960938 -35.58984375 104.79296875 C-33.87785984 99.45120474 -31.71784428 94.40487097 -29.375 89.3125 C-28.70616082 87.81346745 -28.03948995 86.31346554 -27.375 84.8125 C-27.06199951 84.1100415 -26.74899902 83.40758301 -26.42651367 82.68383789 C-25.77028575 81.203935 -25.11923515 79.72171236 -24.47607422 78.23608398 C-22.04440207 72.65432039 -19.35365983 67.25191319 -16.5 61.875 C-16.06236328 61.04895264 -15.62472656 60.22290527 -15.17382812 59.37182617 C-7.73669127 45.41620913 -7.73669127 45.41620913 -5.375 42.3125 C-4.715 42.3125 -4.055 42.3125 -3.375 42.3125 C-3.375 41.3225 -3.375 40.3325 -3.375 39.3125 C-1.87890625 37.77734375 -1.87890625 37.77734375 0.0625 36.25 C2.78375193 34.1453667 2.78375193 34.1453667 4.625 31.3125 C5.615 31.3125 6.605 31.3125 7.625 31.3125 C12.46730868 38.72728517 12.02422611 45.7956764 11.625 54.3125 C10.635 52.3325 10.635 52.3325 9.625 50.3125 C9.13 51.3025 9.13 51.3025 8.625 52.3125 C7.965 52.3125 7.305 52.3125 6.625 52.3125 C6.44324219 52.97636719 6.26148438 53.64023438 6.07421875 54.32421875 C4.72049364 59.07961208 3.41484997 63.18352205 0.625 67.3125 C-1.76244733 71.14688511 -3.49863054 74.27989743 -4.5 78.6875 C-4.78875 79.88375 -5.0775 81.08 -5.375 82.3125 C-6.365 82.8075 -6.365 82.8075 -7.375 83.3125 C-8.03272428 86.34184491 -8.03272428 86.34184491 -8.375 89.3125 C-1.08647813 88.86962145 -1.08647813 88.86962145 5.625 86.3125 C5.769375 85.69375 5.91375 85.075 6.0625 84.4375 C6.95370007 81.07074417 9.80052272 80.17665501 12.625 78.3125 C13.67392238 76.67618108 14.67406703 75.00764137 15.625 73.3125 C16.40875 72.57 17.1925 71.8275 18 71.0625 C23.91909802 64.86154017 27.82219545 56.76951529 27.70703125 48.0859375 C27.62975905 46.61907537 27.53976257 45.152832 27.4375 43.6875 C27.39012695 42.58148438 27.39012695 42.58148438 27.34179688 41.453125 C27.06490473 36.97469549 26.3529279 34.03307013 23.625 30.3125 C22.84125 30.498125 22.0575 30.68375 21.25 30.875 C18.625 31.3125 18.625 31.3125 16.625 30.3125 C16.625 29.6525 16.625 28.9925 16.625 28.3125 C9.695 28.3125 2.765 28.3125 -4.375 28.3125 C-4.375 28.9725 -4.375 29.6325 -4.375 30.3125 C-5.509375 30.43625 -6.64375 30.56 -7.8125 30.6875 C-8.988125 30.89375 -10.16375 31.1 -11.375 31.3125 C-11.705 31.9725 -12.035 32.6325 -12.375 33.3125 C-13.509375 33.786875 -14.64375 34.26125 -15.8125 34.75 C-19.56568113 36.01440988 -19.56568113 36.01440988 -21.375 39.3125 C-24 40 -24 40 -26.375 40.3125 C-26.375 39.6525 -26.375 38.9925 -26.375 38.3125 C-33.91665158 44.05024068 -37.92140881 50.59629367 -41.375 59.3125 C-41.72175781 60.07949219 -42.06851563 60.84648438 -42.42578125 61.63671875 C-43.82207136 65.57276287 -43.82460419 69.42706403 -44.03125 73.5703125 C-44.375 76.3125 -44.375 76.3125 -46.375 79.3125 C-48.2734375 79.0078125 -48.2734375 79.0078125 -50.375 78.3125 C-56.19583773 67.11858129 -57.29734742 50.26416586 -54.625 38 C-51.96631822 30.15688874 -48.09606199 23.37868406 -42.375 17.3125 C-41.385 16.9825 -40.395 16.6525 -39.375 16.3125 C-39.045 15.3225 -38.715 14.3325 -38.375 13.3125 C-37.715 13.3125 -37.055 13.3125 -36.375 13.3125 C-36.045 12.3225 -35.715 11.3325 -35.375 10.3125 C-30.15277778 7.3125 -30.15277778 7.3125 -27.375 7.3125 C-27.375 6.6525 -27.375 5.9925 -27.375 5.3125 C-26.385 5.3125 -25.395 5.3125 -24.375 5.3125 C-24.375 4.6525 -24.375 3.9925 -24.375 3.3125 C-23.79830566 3.16901123 -23.22161133 3.02552246 -22.62744141 2.87768555 C-21.22087611 2.52474834 -19.81643843 2.16308165 -18.41552734 1.78833008 C-12.24322956 0.24851641 -6.3435037 -0.02103284 0 0 Z " fill="#7F7F7F" transform="translate(116.375,54.6875)"/>
<path d="M0 0 C0.71663818 0.03456299 1.43327637 0.06912598 2.17163086 0.10473633 C6.83488216 0.3988443 10.92552965 1.25689602 15.375 2.6875 C15.375 3.3475 15.375 4.0075 15.375 4.6875 C16.365 4.6875 17.355 4.6875 18.375 4.6875 C18.375 5.3475 18.375 6.0075 18.375 6.6875 C19.4578125 7.0278125 19.4578125 7.0278125 20.5625 7.375 C27.6344998 10.67526657 31.88183095 17.70738049 34.54296875 24.80078125 C35.24258773 26.90974098 35.92240754 29.02541784 36.578125 31.1484375 C37.28824431 33.64637272 37.28824431 33.64637272 38.375 35.6875 C39.68206148 45.0430947 39.49555674 54.51478186 39.4375 63.9375 C39.43246923 65.37630051 39.42790914 66.81510274 39.42382812 68.25390625 C39.41296064 71.73180751 39.39578528 75.20964217 39.375 78.6875 C42.84 78.1925 42.84 78.1925 46.375 77.6875 C46.148125 77.089375 45.92125 76.49125 45.6875 75.875 C45.584375 75.153125 45.48125 74.43125 45.375 73.6875 C46.75 72.125 46.75 72.125 48.375 70.6875 C48.87 69.2025 48.87 69.2025 49.375 67.6875 C50.5625 66 50.5625 66 52.375 64.6875 C55.5625 64.5 55.5625 64.5 58.375 64.6875 C58.375 65.3475 58.375 66.0075 58.375 66.6875 C59.86 67.1825 59.86 67.1825 61.375 67.6875 C63.32565425 72.0409469 63.59648123 75.83491951 63.5 80.5625 C63.48195313 81.71492188 63.46390625 82.86734375 63.4453125 84.0546875 C63.42210937 84.92351562 63.39890625 85.79234375 63.375 86.6875 C61.725 86.6875 60.075 86.6875 58.375 86.6875 C57.9728125 88.2653125 57.9728125 88.2653125 57.5625 89.875 C56.375 93.6875 56.375 93.6875 54.9375 96.03515625 C50.498127 103.57099192 48.78894236 112.04314983 49.375 120.6875 C54.95330016 120.81219099 54.95330016 120.81219099 60.375 119.6875 C60.375 118.6975 60.375 117.7075 60.375 116.6875 C61.984375 115.36328125 61.984375 115.36328125 64.125 114 C71.73673943 108.48851205 73.3910146 99.99769663 76.12890625 91.37109375 C78.49510045 84.37635665 81.63278431 78.02476407 85.375 71.6875 C85.766875 70.98496094 86.15875 70.28242187 86.5625 69.55859375 C87.75 67.625 87.75 67.625 90.375 64.6875 C94.1875 64.25 94.1875 64.25 97.375 64.6875 C102.89832519 71.59165649 101.73776872 79.29343482 101.375 87.6875 C100.385 87.3575 99.395 87.0275 98.375 86.6875 C95.80474154 90.9712641 93.78792095 94.8600201 92.375 99.6875 C91.715 99.6875 91.055 99.6875 90.375 99.6875 C89.40955887 104.09721758 88.85257051 108.52341551 88.3125 113 C88.22162109 113.74056641 88.13074219 114.48113281 88.03710938 115.24414062 C87.81471781 117.05838758 87.59462647 118.87291624 87.375 120.6875 C92.9528448 120.79380986 92.9528448 120.79380986 98.375 119.6875 C98.375 118.6975 98.375 117.7075 98.375 116.6875 C99.035 116.6875 99.695 116.6875 100.375 116.6875 C100.52195312 115.79611328 100.52195312 115.79611328 100.671875 114.88671875 C102.35038884 105.5825429 105.75681496 97.08191488 109.3125 88.359375 C110.09098516 86.40171379 110.83639279 84.43081175 111.5625 82.453125 C116.45055104 69.19428654 116.45055104 69.19428654 120.375 64.6875 C124.52314815 63.30478395 124.52314815 63.30478395 127.375 64.6875 C129.75224409 68.28732677 131.58496966 71.42133614 132.375 75.6875 C132.705 76.3475 133.035 77.0075 133.375 77.6875 C134.365 77.6875 135.355 77.6875 136.375 77.6875 C138.1875 79.9375 138.1875 79.9375 139.375 82.6875 C138.875 84.8125 138.875 84.8125 137.375 86.6875 C136.570625 87.14125 135.76625 87.595 134.9375 88.0625 C131.71158987 90.10819911 130.83786636 92.22281653 129.375 95.6875 C128.715 95.6875 128.055 95.6875 127.375 95.6875 C127.00375 96.4609375 127.00375 96.4609375 126.625 97.25 C125.63791489 99.17481596 124.58097873 101.06380353 123.5 102.9375 C122.78831909 104.18559711 122.08010801 105.43567781 121.375 106.6875 C120.84132813 107.63496094 120.84132813 107.63496094 120.296875 108.6015625 C117.104597 114.58112802 115.89950753 120.4821762 114.8125 127.125 C114.375 129.6875 114.375 129.6875 113.375 131.6875 C113.03319648 133.1810952 112.72561665 134.68262624 112.4375 136.1875 C112.17839844 137.5178125 112.17839844 137.5178125 111.9140625 138.875 C111.64722656 140.2671875 111.64722656 140.2671875 111.375 141.6875 C111.02351231 143.52134883 110.66946782 145.35471002 110.3125 147.1875 C110.15652344 148.0021875 110.00054688 148.816875 109.83984375 149.65625 C109.375 151.6875 109.375 151.6875 108.375 153.6875 C106.725 153.6875 105.075 153.6875 103.375 153.6875 C103.375 153.0275 103.375 152.3675 103.375 151.6875 C102.385 151.3575 101.395 151.0275 100.375 150.6875 C99.59657062 147.28187148 99.27521879 144.17984244 99.375 140.6875 C97.43701737 143.46010299 97.43701737 143.46010299 96.375 145.6875 C95.715 145.6875 95.055 145.6875 94.375 145.6875 C93.715 146.3475 93.055 147.0075 92.375 147.6875 C89.75 148.3125 89.75 148.3125 87.375 148.6875 C87.045 149.6775 86.715 150.6675 86.375 151.6875 C77.59921525 152.60767937 77.59921525 152.60767937 74.59765625 150.3515625 C73.25 148.6875 73.25 148.6875 71.375 145.6875 C72.035 144.0375 72.695 142.3875 73.375 140.6875 C72.385 140.6875 71.395 140.6875 70.375 140.6875 C70.045 137.0575 69.715 133.4275 69.375 129.6875 C68.055 131.3375 66.735 132.9875 65.375 134.6875 C65.045 133.3675 64.715 132.0475 64.375 130.6875 C64.045 131.3475 63.715 132.0075 63.375 132.6875 C62.715 132.6875 62.055 132.6875 61.375 132.6875 C61.045 135.9875 60.715 139.2875 60.375 142.6875 C59.055 142.6875 57.735 142.6875 56.375 142.6875 C56.045 144.3375 55.715 145.9875 55.375 147.6875 C54.385 148.0175 53.395 148.3475 52.375 148.6875 C52.045 149.3475 51.715 150.0075 51.375 150.6875 C46.78884057 152.52196377 40.94072403 152.20940801 36.375 150.6875 C30.58210617 143.03688505 31.30277351 133.4094024 31.40625 124.31640625 C31.36334603 120.70710983 30.91334788 117.25405469 30.375 113.6875 C29.385 115.6675 28.395 117.6475 27.375 119.6875 C27.045 119.6875 26.715 119.6875 26.375 119.6875 C26.375 117.7075 26.375 115.7275 26.375 113.6875 C25.715 114.6775 25.055 115.6675 24.375 116.6875 C23.715 116.6875 23.055 116.6875 22.375 116.6875 C22.189375 118.110625 22.189375 118.110625 22 119.5625 C21.375 122.6875 21.375 122.6875 19.375 124.6875 C18.79591183 126.15242106 18.26027444 127.63471251 17.75 129.125 C15.66972494 134.55902648 12.60327818 138.83832034 9.08203125 143.4375 C7.36025523 145.56338463 7.36025523 145.56338463 6.375 147.6875 C5.715 147.6875 5.055 147.6875 4.375 147.6875 C4.601875 148.76 4.82875 149.8325 5.0625 150.9375 C5.375 154.6875 5.375 154.6875 3.9375 157.125 C3.421875 157.640625 2.90625 158.15625 2.375 158.6875 C2.045 157.3675 1.715 156.0475 1.375 154.6875 C-2.9840077 158.17470616 -3.57052183 161.41510915 -4.625 166.6875 C-4.955 166.0275 -5.285 165.3675 -5.625 164.6875 C-6.285 164.6875 -6.945 164.6875 -7.625 164.6875 C-7.295 165.6775 -6.965 166.6675 -6.625 167.6875 C-7.615 168.0175 -8.605 168.3475 -9.625 168.6875 C-9.955 169.6775 -10.285 170.6675 -10.625 171.6875 C-11.615 172.0175 -12.605 172.3475 -13.625 172.6875 C-13.955 173.3475 -14.285 174.0075 -14.625 174.6875 C-15.285 174.6875 -15.945 174.6875 -16.625 174.6875 C-16.625 175.3475 -16.625 176.0075 -16.625 176.6875 C-18.605 177.0175 -20.585 177.3475 -22.625 177.6875 C-22.625 178.3475 -22.625 179.0075 -22.625 179.6875 C-24.935 180.0175 -27.245 180.3475 -29.625 180.6875 C-29.625 181.3475 -29.625 182.0075 -29.625 182.6875 C-44.39657838 184.39595657 -44.39657838 184.39595657 -48.5 181.25 C-49.625 179.6875 -49.625 179.6875 -49.625 177.6875 C-50.615 177.3575 -51.605 177.0275 -52.625 176.6875 C-55.16565428 171.37126792 -55.1338553 165.65858336 -55.375 159.875 C-55.43042969 158.92818359 -55.48585938 157.98136719 -55.54296875 157.00585938 C-55.8905702 149.35336072 -55.28218267 142.12150337 -51.625 135.25 C-51.13 134.29287109 -51.13 134.29287109 -50.625 133.31640625 C-49.625 131.6875 -49.625 131.6875 -47.625 129.6875 C-47.36474206 127.76638518 -47.36474206 127.76638518 -47.46484375 125.58984375 C-47.47580078 124.78869141 -47.48675781 123.98753906 -47.49804688 123.16210938 C-47.51931641 122.32486328 -47.54058594 121.48761719 -47.5625 120.625 C-47.62422153 117.64179282 -47.64558442 114.67224033 -47.625 111.6875 C-47.13 111.1925 -47.13 111.1925 -46.625 110.6875 C-46.65722656 109.83929688 -46.68945312 108.99109375 -46.72265625 108.1171875 C-46.60578733 104.01275098 -45.47423547 100.61619646 -44.0625 96.8125 C-43.794375 96.07507568 -43.52625 95.33765137 -43.25 94.57788086 C-39.29174601 83.87167025 -35.00593677 73.38669211 -28.890625 63.71484375 C-27.49923528 61.56310406 -27.49923528 61.56310406 -26.125 58.625 C-24.35392351 55.15664187 -22.23992634 52.02608018 -20.046875 48.8125 C-18.91975679 47.12801564 -17.88057009 45.38474766 -16.875 43.625 C-16.25625 42.6659375 -16.25625 42.6659375 -15.625 41.6875 C-14.965 41.6875 -14.305 41.6875 -13.625 41.6875 C-13.3775 40.759375 -13.13 39.83125 -12.875 38.875 C-11.52488981 35.43221901 -10.96200568 34.22071883 -7.625 32.6875 C-1.61236356 32.79298485 -1.61236356 32.79298485 1.078125 35.23046875 C2.93087984 38.74065789 2.69555586 42.07546836 2.5625 45.9375 C2.54219727 47.05511719 2.54219727 47.05511719 2.52148438 48.1953125 C2.48627204 50.02635416 2.43246851 51.85702169 2.375 53.6875 C1.385 54.1825 1.385 54.1825 0.375 54.6875 C0.375 52.3775 0.375 50.0675 0.375 47.6875 C-2.48953858 51.09766497 -3.97203566 54.59444544 -5.625 58.6875 C-6.285 58.6875 -6.945 58.6875 -7.625 58.6875 C-7.78162109 59.77417969 -7.78162109 59.77417969 -7.94140625 60.8828125 C-8.68946892 63.95200677 -9.84058566 65.92700274 -11.5625 68.5625 C-13.45799161 71.58626042 -14.96949642 74.21374386 -15.8125 77.6875 C-16.625 80.6875 -16.625 80.6875 -19.625 82.6875 C-20.71826754 85.12437475 -20.71826754 85.12437475 -21.5625 87.9375 C-22.68868866 91.25183468 -23.61445782 93.67234562 -25.625 96.5625 C-28.81316659 101.54401029 -30.00492636 107.01724226 -31.625 112.6875 C-25.19 111.6975 -25.19 111.6975 -18.625 110.6875 C-18.625 109.6975 -18.625 108.7075 -18.625 107.6875 C-15.565229 106.84392037 -12.5017954 106.0144798 -9.4375 105.1875 C-8.14102539 104.82978516 -8.14102539 104.82978516 -6.81835938 104.46484375 C-5.97724609 104.23925781 -5.13613281 104.01367188 -4.26953125 103.78125 C-3.49971924 103.57177734 -2.72990723 103.36230469 -1.93676758 103.14648438 C0.55323523 102.65211271 2.84281499 102.60916481 5.375 102.6875 C5.375 101.6975 5.375 100.7075 5.375 99.6875 C5.97828125 99.56375 6.5815625 99.44 7.203125 99.3125 C11.68214507 98.15662385 13.87085907 97.36877152 16.6875 93.5625 C19.51350542 86.62711972 20.83789229 78.9950296 22.375 71.6875 C22.55675781 70.83542969 22.73851562 69.98335938 22.92578125 69.10546875 C24.01643603 63.23490084 24.49326976 57.77148173 24.0625 51.8125 C24.01544922 51.11286133 23.96839844 50.41322266 23.91992188 49.69238281 C23.53050052 44.50730963 22.71241492 39.70280593 21.375 34.6875 C21.25125 33.97078125 21.1275 33.2540625 21 32.515625 C20.79375 31.91234375 20.5875 31.3090625 20.375 30.6875 C18.89 30.1925 18.89 30.1925 17.375 29.6875 C17.375 29.0275 17.375 28.3675 17.375 27.6875 C16.385 27.6875 15.395 27.6875 14.375 27.6875 C14.375 28.6775 14.375 29.6675 14.375 30.6875 C11.075 30.3575 7.775 30.0275 4.375 29.6875 C4.375 29.0275 4.375 28.3675 4.375 27.6875 C2.395 27.6875 0.415 27.6875 -1.625 27.6875 C-1.625 28.3475 -1.625 29.0075 -1.625 29.6875 C-4.925 30.0175 -8.225 30.3475 -11.625 30.6875 C-11.625 31.3475 -11.625 32.0075 -11.625 32.6875 C-15.585 33.6775 -19.545 34.6675 -23.625 35.6875 C-23.625 36.3475 -23.625 37.0075 -23.625 37.6875 C-25.15625 39.1953125 -25.15625 39.1953125 -27.125 40.8125 C-27.7746875 41.35132813 -28.424375 41.89015625 -29.09375 42.4453125 C-29.5990625 42.85523438 -30.104375 43.26515625 -30.625 43.6875 C-30.955 42.3675 -31.285 41.0475 -31.625 39.6875 C-32.615 39.6875 -33.605 39.6875 -34.625 39.6875 C-35.058125 41.1415625 -35.058125 41.1415625 -35.5 42.625 C-36.625 45.6875 -36.625 45.6875 -38.625 46.6875 C-43.26854323 54.11716917 -46.96167222 60.76568605 -46.625 69.6875 C-47.625 73.125 -47.625 73.125 -48.625 75.6875 C-50.275 75.6875 -51.925 75.6875 -53.625 75.6875 C-54.4716034 74.29967515 -55.30175339 72.90180603 -56.125 71.5 C-56.5890625 70.72269531 -57.053125 69.94539063 -57.53125 69.14453125 C-58.74314447 66.42209688 -58.66348558 64.62683582 -58.625 61.6875 C-59.285 60.6975 -59.945 59.7075 -60.625 58.6875 C-62.57266056 49.86790502 -63.27170062 38.65327249 -58.625 30.6875 C-57.07038923 28.34102757 -55.43306033 26.06830693 -53.75 23.8125 C-53.32734863 23.24031738 -52.90469727 22.66813477 -52.46923828 22.07861328 C-49.78725313 18.64003899 -47.67796003 17.14204663 -43.625 15.6875 C-43.295 14.6975 -42.965 13.7075 -42.625 12.6875 C-41.965 12.6875 -41.305 12.6875 -40.625 12.6875 C-40.625 12.0275 -40.625 11.3675 -40.625 10.6875 C-39.19070999 10.01395501 -37.75242943 9.34890299 -36.3125 8.6875 C-35.51199219 8.31625 -34.71148438 7.945 -33.88671875 7.5625 C-31.625 6.6875 -31.625 6.6875 -28.625 6.6875 C-28.625 6.0275 -28.625 5.3675 -28.625 4.6875 C-27.635 4.6875 -26.645 4.6875 -25.625 4.6875 C-25.625 4.0275 -25.625 3.3675 -25.625 2.6875 C-16.92937579 0.31596612 -8.96635209 -0.46744929 0 0 Z " fill="#7F7F7F" transform="translate(547.625,55.3125)"/>
<path d="M0 0 C3.625 0.5 3.625 0.5 6 3.0625 C9.50953518 10.48651672 8.47241192 17.56040214 7.625 25.5 C6.305 25.17 4.985 24.84 3.625 24.5 C4.285 25.44875 4.945 26.3975 5.625 27.375 C7.625 30.5 7.625 30.5 7.625 32.5 C15.43112754 33.82870256 22.81887246 33.82870256 30.625 32.5 C30.625 31.84 30.625 31.18 30.625 30.5 C32.275 30.17 33.925 29.84 35.625 29.5 C35.625 28.84 35.625 28.18 35.625 27.5 C36.945 27.5 38.265 27.5 39.625 27.5 C39.625 28.16 39.625 28.82 39.625 29.5 C40.615 29.83 41.605 30.16 42.625 30.5 C45.80496663 33.67996663 46.55040233 35.4682569 46.87890625 40.01171875 C46.87536275 43.51623906 46.79760351 46.99998443 46.625 50.5 C45.635 50.17 44.645 49.84 43.625 49.5 C43.026875 50.5725 42.42875 51.645 41.8125 52.75 C40.65461289 54.79668778 39.57131368 56.56442358 38.0625 58.375 C33.00674448 65.84872555 32.98528547 74.76618322 32.625 83.5 C37.37159999 84.45064958 40.09897657 84.33196187 44.625 82.5 C44.769375 81.283125 44.91375 80.06625 45.0625 78.8125 C45.66985892 73.693332 46.76855309 68.78387793 48.125 63.8125 C48.3828125 62.85988281 48.640625 61.90726563 48.90625 60.92578125 C49.625 58.5 49.625 58.5 50.625 56.5 C51.285 56.5 51.945 56.5 52.625 56.5 C52.32529297 55.64148438 52.32529297 55.64148438 52.01953125 54.765625 C51.53018614 51.95552439 52.08062357 50.79618326 53.3125 48.25 C53.69148438 47.46109375 54.07046875 46.6721875 54.4609375 45.859375 C55.03714844 44.69148438 55.03714844 44.69148438 55.625 43.5 C55.92664063 42.82453125 56.22828125 42.1490625 56.5390625 41.453125 C59.06552732 35.96081018 62.17271532 30.64490938 66.625 26.5 C70.3125 25.6875 70.3125 25.6875 73.625 26.5 C76.25960307 28.37195482 77.38040606 29.59196497 78.22265625 32.71875 C78.69032055 35.95153623 78.72048502 39.0469835 78.6875 42.3125 C78.67847656 43.47394531 78.66945313 44.63539063 78.66015625 45.83203125 C78.64855469 46.71246094 78.63695312 47.59289062 78.625 48.5 C77.635 47.51 76.645 46.52 75.625 45.5 C75.29886719 46.30824219 74.97273438 47.11648437 74.63671875 47.94921875 C74.19972656 49.01785156 73.76273437 50.08648437 73.3125 51.1875 C72.88324219 52.24324219 72.45398438 53.29898438 72.01171875 54.38671875 C70.72684936 57.27134102 69.42205251 59.90318686 67.625 62.5 C66.965 62.5 66.305 62.5 65.625 62.5 C65.480625 63.53125 65.33625 64.5625 65.1875 65.625 C64.8534143 67.92647928 64.47431622 70.22328213 64 72.5 C63.56047297 76.01621627 63.99970282 79.02612676 64.625 82.5 C67.265 82.5 69.905 82.5 72.625 82.5 C72.625 81.51 72.625 80.52 72.625 79.5 C73.57503906 79.15453125 74.52507812 78.8090625 75.50390625 78.453125 C78.90331504 76.76707842 78.90331504 76.76707842 79.83984375 73.234375 C80.10000428 71.90989084 80.3397763 70.58129108 80.5625 69.25 C83.18314636 56.72516699 88.71839145 42.20504139 98.70703125 33.734375 C100.625 32.5 100.625 32.5 102.625 32.5 C103.12 31.015 103.12 31.015 103.625 29.5 C104.285 29.5 104.945 29.5 105.625 29.5 C105.625 28.84 105.625 28.18 105.625 27.5 C113.00322 25.70716149 118.31128168 25.34185361 125.625 27.5 C125.625 28.16 125.625 28.82 125.625 29.5 C126.615 29.83 127.605 30.16 128.625 30.5 C131.55076535 35.04587373 131.98435846 38.59533925 131.875 43.9375 C131.85953125 45.19433594 131.8440625 46.45117188 131.828125 47.74609375 C131.62964597 51.41413894 131.36787552 54.90059125 130.625 58.5 C127.67548089 61.11434649 125.74457345 62.37560295 121.8125 62.8125 C119.625 62.5 119.625 62.5 118.625 61.5 C118.53848389 60.08429877 118.51795096 58.664405 118.52734375 57.24609375 C118.53217773 55.96508789 118.53217773 55.96508789 118.53710938 54.65820312 C118.54967773 53.31145508 118.54967773 53.31145508 118.5625 51.9375 C118.56701172 51.03580078 118.57152344 50.13410156 118.57617188 49.20507812 C118.58799775 46.96998686 118.6044778 44.73502563 118.625 42.5 C117.965 42.17 117.305 41.84 116.625 41.5 C116.295 42.82 115.965 44.14 115.625 45.5 C114.635 45.5 113.645 45.5 112.625 45.5 C112.295 46.49 111.965 47.48 111.625 48.5 C111.295 47.51 110.965 46.52 110.625 45.5 C109.635 45.5 108.645 45.5 107.625 45.5 C107.625 47.15 107.625 48.8 107.625 50.5 C106.861875 50.644375 106.09875 50.78875 105.3125 50.9375 C102.54327092 51.4632594 102.54327092 51.4632594 99.625 52.5 C99.66625 53.28375 99.7075 54.0675 99.75 54.875 C99.625 57.5 99.625 57.5 97.625 59.5 C97.02166594 62.15233812 96.56043029 64.69085206 96.1875 67.375 C96.05923828 68.09558594 95.93097656 68.81617188 95.79882812 69.55859375 C95.40486727 71.95391872 95.40486727 71.95391872 95.625 75.5 C97.87277984 77.89630098 97.87277984 77.89630098 100.625 79.5 C101.615 80.985 101.615 80.985 102.625 82.5 C105.98003476 82.86558117 105.98003476 82.86558117 109.75 82.6875 C111.03132813 82.66042969 112.31265625 82.63335937 113.6328125 82.60546875 C114.62023437 82.57066406 115.60765625 82.53585938 116.625 82.5 C116.625 81.51 116.625 80.52 116.625 79.5 C117.38425781 79.12488281 118.14351563 78.74976563 118.92578125 78.36328125 C119.91964844 77.85152344 120.91351563 77.33976562 121.9375 76.8125 C122.92363281 76.31363281 123.90976562 75.81476563 124.92578125 75.30078125 C127.92034376 73.30296169 128.88598837 71.59319997 130.625 68.5 C132.605 67.015 132.605 67.015 134.625 65.5 C134.625 71.44 134.625 77.38 134.625 83.5 C133.635 83.995 133.635 83.995 132.625 84.5 C132.295 82.85 131.965 81.2 131.625 79.5 C131.33625 80.469375 131.0475 81.43875 130.75 82.4375 C129.625 85.5 129.625 85.5 127.625 86.5 C126.89806096 88.47888961 126.22683749 90.47954558 125.625 92.5 C124.965 92.5 124.305 92.5 123.625 92.5 C123.955 94.81 124.285 97.12 124.625 99.5 C123.965 99.5 123.305 99.5 122.625 99.5 C122.295 100.49 121.965 101.48 121.625 102.5 C119.5625 103.1875 119.5625 103.1875 117.625 103.5 C117.625 100.5 117.625 100.5 119.125 98.8125 C119.8675 98.1628125 119.8675 98.1628125 120.625 97.5 C119.635 97.5 118.645 97.5 117.625 97.5 C117.315625 98.11875 117.00625 98.7375 116.6875 99.375 C116 100.75 115.3125 102.125 114.625 103.5 C114.955 104.16 115.285 104.82 115.625 105.5 C114.9375 107.5625 114.9375 107.5625 113.625 109.5 C111.875 110.1875 111.875 110.1875 109.625 110.5 C108.01625 110.7784375 108.01625 110.7784375 106.375 111.0625 C105.01375 111.2790625 105.01375 111.2790625 103.625 111.5 C103.625 112.16 103.625 112.82 103.625 113.5 C99.665 113.5 95.705 113.5 91.625 113.5 C91.295 112.84 90.965 112.18 90.625 111.5 C89.67625 111.273125 88.7275 111.04625 87.75 110.8125 C84.625 109.5 84.625 109.5 82.6875 106.0625 C81.625 102.5 81.625 102.5 82.625 99.5 C82.23102665 96.86195411 82.23102665 96.86195411 81.625 94.5 C80.965 94.5 80.305 94.5 79.625 94.5 C79.295 96.81 78.965 99.12 78.625 101.5 C77.965 100.18 77.305 98.86 76.625 97.5 C75.965 97.5 75.305 97.5 74.625 97.5 C74.5321875 99.35625 74.5321875 99.35625 74.4375 101.25 C74.01914739 104.53871639 73.77997029 105.33174655 71.4375 107.875 C68.55055132 109.5430148 65.83138709 110.6051943 62.625 111.5 C62.625 112.16 62.625 112.82 62.625 113.5 C53.73971542 114.1104394 53.73971542 114.1104394 50 112.0625 C47.96147426 108.26342931 48.30021971 104.72214379 48.625 100.5 C47.965 100.5 47.305 100.5 46.625 100.5 C46.13 101.985 46.13 101.985 45.625 103.5 C44.305 103.5 42.985 103.5 41.625 103.5 C41.356875 104.634375 41.08875 105.76875 40.8125 106.9375 C40.420625 108.113125 40.02875 109.28875 39.625 110.5 C38.635 110.83 37.645 111.16 36.625 111.5 C36.295 112.16 35.965 112.82 35.625 113.5 C32.76208937 114.49415358 30.07570778 114.63519698 27.0625 114.625 C26.29808594 114.62757813 25.53367187 114.63015625 24.74609375 114.6328125 C21.72882272 114.44388577 20.04970375 113.97406399 18.01171875 111.69921875 C12.02418073 102.20348943 13.59203859 86.21004048 15.8125 75.625 C17.17010813 70.45315952 19.15068774 65.75796016 21.484375 60.95703125 C22.92557349 57.85253177 23.81387167 54.81825227 24.625 51.5 C21.37650023 53.22226496 21.37650023 53.22226496 20.625 56.5 C17.41048731 58.10725635 14.18887464 57.55748185 10.625 57.5 C9.965 55.85 9.305 54.2 8.625 52.5 C5.6737355 53.97563225 5.55576085 56.00079352 4.5 59.0625 C4.14679688 60.07441406 3.79359375 61.08632812 3.4296875 62.12890625 C3.16414063 62.91136719 2.89859375 63.69382813 2.625 64.5 C1.965 64.5 1.305 64.5 0.625 64.5 C0.625 63.84 0.625 63.18 0.625 62.5 C-0.365 62.17 -1.355 61.84 -2.375 61.5 C-1.055 57.87 0.265 54.24 1.625 50.5 C1.295 50.17 0.965 49.84 0.625 49.5 C-0.365 49.995 -0.365 49.995 -1.375 50.5 C-1.375 42.58 -1.375 34.66 -1.375 26.5 C-2.695 26.83 -4.015 27.16 -5.375 27.5 C-5.705 28.16 -6.035 28.82 -6.375 29.5 C-9.54481132 10.67924528 -9.54481132 10.67924528 -5.375 2.5 C-3.375 0.5 -3.375 0.5 0 0 Z " fill="#7F7F7F" transform="translate(324.375,92.5)"/>
<path d="M0 0 C1.98 0 3.96 0 6 0 C6 0.66 6 1.32 6 2 C6.5775 2.061875 7.155 2.12375 7.75 2.1875 C11.11273836 3.40182219 12.15580713 4.94754283 14 8 C15.93235202 15.13483822 14.72705513 22.76300512 14 30 C13.01 30 12.02 30 11 30 C10.73445312 30.79664063 10.46890625 31.59328125 10.1953125 32.4140625 C7 42 7 42 5.875 45.15625 C4.83483714 48.53677928 4.85934384 51.48359594 5 55 C7.31 55 9.62 55 12 55 C12 54.01 12 53.02 12 52 C13.64453125 50.5703125 13.64453125 50.5703125 15.8125 49.125 C19.20969074 46.71890533 21.00505666 44.69064517 23 41 C24.30694228 39.96574681 25.63800341 38.96059516 27 38 C27.02696365 39.79158489 27.04637917 41.58328473 27.0625 43.375 C27.07410156 44.37273437 27.08570313 45.37046875 27.09765625 46.3984375 C27 49 27 49 26 51 C25.01 51 24.02 51 23 51 C22.9175 51.66 22.835 52.32 22.75 53 C21.46497822 58.14008712 18.92593596 62.61109606 16 67 C15.61500109 68.65549531 15.27206865 70.3222433 15 72 C13.515 72.495 13.515 72.495 12 73 C11.38035162 75.04914454 11.38035162 75.04914454 11.125 77.4375 C10.66015625 79.91015625 10.66015625 79.91015625 10 82 C7.5625 83.375 7.5625 83.375 5 84 C4.54367187 84.50273437 4.08734375 85.00546875 3.6171875 85.5234375 C1.5055085 87.45149224 0.37792698 87.34495538 -2.4375 87.25 C-3.19933594 87.23453125 -3.96117187 87.2190625 -4.74609375 87.203125 C-8.02281672 86.90782241 -10.27735665 86.69587878 -12.6875 84.375 C-17.35376437 75.93128352 -16.24212279 59.35633625 -13.6953125 50.19140625 C-13.46585938 49.46824219 -13.23640625 48.74507812 -13 48 C-12.70867188 46.99839844 -12.41734375 45.99679688 -12.1171875 44.96484375 C-10.25846575 38.70812291 -8.15736465 32.57324825 -5.8828125 26.45703125 C-4.76203484 23.33769875 -3.85376736 20.2016276 -3 17 C-3.66 17.33 -4.32 17.66 -5 18 C-5.33 18.99 -5.66 19.98 -6 21 C-8 21.75 -8 21.75 -10 22 C-11 21 -11 21 -11.09765625 18.71484375 C-11.08605469 17.79832031 -11.07445312 16.88179687 -11.0625 15.9375 C-11.05347656 15.01839844 -11.04445313 14.09929687 -11.03515625 13.15234375 C-11.01775391 12.08693359 -11.01775391 12.08693359 -11 11 C-10.34 10.67 -9.68 10.34 -9 10 C-9 9.01 -9 8.02 -9 7 C-3.76744186 2 -3.76744186 2 0 2 C0 1.34 0 0.68 0 0 Z " fill="#7F7F7F" transform="translate(909,120)"/>
<path d="M0 0 C1.5 1.3125 1.5 1.3125 3 3 C3 3.99 3 4.98 3 6 C4.0725 5.95875 5.145 5.9175 6.25 5.875 C9.65747485 5.9885825 11.20739631 6.21273364 14 8 C14 6.35 14 4.7 14 3 C14.33 3.99 14.66 4.98 15 6 C15.66 6 16.32 6 17 6 C20.73734879 10.5098734 21.52586962 13.70295284 21.4375 19.5 C21.43621094 20.7684375 21.43492188 22.036875 21.43359375 23.34375 C20.76932493 28.94515192 18.80503654 32.80927903 14.4375 36.375 C13.83808594 36.87773437 13.23867187 37.38046875 12.62109375 37.8984375 C11 39 11 39 9 39 C9 39.66 9 40.32 9 41 C3.28264895 43.45029331 -0.79029227 44.33266291 -7 44 C-7.33 44.66 -7.66 45.32 -8 46 C-8 45.34 -8 44.68 -8 44 C-8.99 43.67 -9.98 43.34 -11 43 C-10.67 39.7 -10.34 36.4 -10 33 C-9.34 33 -8.68 33 -8 33 C-8.061875 31.453125 -8.061875 31.453125 -8.125 29.875 C-8.00081939 26.02540111 -7.2701258 23.59868978 -6 20 C-5.66842424 18.39966739 -5.3576937 16.79494133 -5.0625 15.1875 C-2.67345506 2.67345506 -2.67345506 2.67345506 0 0 Z " fill="#FEFEFE" transform="translate(101,160)"/>
<path d="M0 0 C1.9453125 0.6015625 1.9453125 0.6015625 4 2 C4.6796875 4.8984375 4.6796875 4.8984375 4.875 8.375 C4.95492187 9.51710937 5.03484375 10.65921875 5.1171875 11.8359375 C5.00266284 14.92810326 4.83722094 16.53471951 3 19 C1.865625 19.28875 0.73125 19.5775 -0.4375 19.875 C-4.14201702 20.64155101 -4.14201702 20.64155101 -5.75 23.5625 C-7.02253038 27.06195855 -8.19547244 30.57455957 -9.25390625 34.14453125 C-10 36 -10 36 -12 37 C-16.22978164 37.4788432 -18.26400212 37.53120751 -21.765625 35.00390625 C-24.28365097 31.61865805 -24.38058032 29.93373023 -23.82617188 25.81054688 C-23.6337793 24.69776367 -23.6337793 24.69776367 -23.4375 23.5625 C-23.33630859 22.82451172 -23.23511719 22.08652344 -23.13085938 21.32617188 C-22.50197136 17.03829902 -21.5063724 13.0794892 -20 9 C-19.34 9 -18.68 9 -18 9 C-17.938125 8.21625 -17.87625 7.4325 -17.8125 6.625 C-17.544375 5.75875 -17.27625 4.8925 -17 4 C-14.4375 2.6875 -14.4375 2.6875 -12 2 C-12 2.66 -12 3.32 -12 4 C-10.1858073 3.71905418 -8.37364999 3.42493567 -6.5625 3.125 C-5.04849609 2.88136719 -5.04849609 2.88136719 -3.50390625 2.6328125 C-2.67761719 2.42398438 -1.85132813 2.21515625 -1 2 C-0.67 1.34 -0.34 0.68 0 0 Z " fill="#FDFDFD" transform="translate(852,134)"/>
<path d="M0 0 C2.94563014 0.3184465 4.61076606 0.66266392 6.875 2.625 C10.01885889 4.65926164 12.40383716 3.57795474 16 3 C18.4375 3.9375 18.4375 3.9375 20 5 C19.67 5.66 19.34 6.32 19 7 C19.66 7 20.32 7 21 7 C21 8.98 21 10.96 21 13 C21.99 13 22.98 13 24 13 C24 12.34 24 11.68 24 11 C23.34 11 22.68 11 22 11 C22 9.68 22 8.36 22 7 C22.99 6.67 23.98 6.34 25 6 C25.66 7.98 26.32 9.96 27 12 C28.65 12 30.3 12 32 12 C32.33 10.02 32.66 8.04 33 6 C33.66 6 34.32 6 35 6 C35 8.31 35 10.62 35 13 C35.66 13 36.32 13 37 13 C37 11.02 37 9.04 37 7 C37.99 7 38.98 7 40 7 C40 8.98 40 10.96 40 13 C40.66 13 41.32 13 42 13 C42 11.02 42 9.04 42 7 C42.99 7 43.98 7 45 7 C45 8.98 45 10.96 45 13 C45.66 13 46.32 13 47 13 C47 10.69 47 8.38 47 6 C47.66 6 48.32 6 49 6 C49.495 8.97 49.495 8.97 50 12 C51.65 12 53.3 12 55 12 C55.66 10.35 56.32 8.7 57 7 C59.5 8.375 59.5 8.375 62 10 C62 10.66 62 11.32 62 12 C62.33 12 62.66 12 63 12 C63.33 11.01 63.66 10.02 64 9 C62.68 8.34 61.36 7.68 60 7 C61.32 7 62.64 7 64 7 C64.66 5.68 65.32 4.36 66 3 C66 6.3 66 9.6 66 13 C66.66 13 67.32 13 68 13 C68 11.02 68 9.04 68 7 C68.99 7 69.98 7 71 7 C71 8.98 71 10.96 71 13 C72.32 13.33 73.64 13.66 75 14 C73.2272494 15.7727506 70.6588618 15.13684751 68.25854492 15.14526367 C67.0302446 15.15164352 65.80194427 15.15802338 64.53642273 15.16459656 C63.18443847 15.16612546 61.83245368 15.1672393 60.48046875 15.16796875 C59.10142481 15.17118036 57.72238122 15.17454436 56.34333801 15.17805481 C53.44722708 15.18405358 50.55114601 15.18589404 47.6550293 15.18530273 C43.94597429 15.18520128 40.23711144 15.19883262 36.52810192 15.21607494 C33.67734399 15.22720312 30.8266323 15.22922166 27.97585487 15.22869301 C26.6087306 15.22987269 25.24160511 15.23429386 23.87450218 15.24202538 C21.95957279 15.25183745 20.04458728 15.24767981 18.12963867 15.24291992 C17.04011398 15.24434494 15.95058929 15.24576996 14.82804871 15.24723816 C11.97327033 14.9976632 10.31283616 14.6839582 8 13 C7.25 9.375 7.25 9.375 7 6 C5.68 6 4.36 6 3 6 C3 4.68 3 3.36 3 2 C2.34 2 1.68 2 1 2 C1 5.63 1 9.26 1 13 C1.66 13 2.32 13 3 13 C3 11.35 3 9.7 3 8 C3.99 7.67 4.98 7.34 6 7 C6 9.31 6 11.62 6 14 C4.96875 14.12375 3.9375 14.2475 2.875 14.375 C-0.93223229 14.88229818 -0.93223229 14.88229818 -4.1875 16.0625 C-7 17 -7 17 -11 17 C-11.08082094 15.04233719 -11.13910778 13.08373272 -11.1875 11.125 C-11.22230469 10.03445313 -11.25710938 8.94390625 -11.29296875 7.8203125 C-11.19628906 6.88960938 -11.09960938 5.95890625 -11 5 C-7.71379848 2.80919899 -4.78119262 2.05033128 -1 1 C-0.67 0.67 -0.34 0.34 0 0 Z " fill="#E7E7E7" transform="translate(938,279)"/>
<path d="M0 0 C0.99 0.33 1.98 0.66 3 1 C4.58096989 5.90100666 3.5379639 10.22421737 2 15 C0.5625 17.25 0.5625 17.25 -1 19 C-1.495 19.845625 -1.99 20.69125 -2.5 21.5625 C-3.84734342 23.75193305 -5.20390322 25.20390322 -7 27 C-7.33 27.99 -7.66 28.98 -8 30 C-12.85555122 33.39888585 -15.93245172 34.59485767 -22 34 C-22.66 33.67 -23.32 33.34 -24 33 C-24.33278764 26.18401613 -24.24201565 21.07877934 -21 15 C-20.34 15 -19.68 15 -19 15 C-18.5978125 13.2984375 -18.5978125 13.2984375 -18.1875 11.5625 C-17.795625 10.386875 -17.40375 9.21125 -17 8 C-16.01 7.67 -15.02 7.34 -14 7 C-14 7.66 -14 8.32 -14 9 C-10.72226496 8.24849977 -10.72226496 8.24849977 -9 5 C-7.0546875 4.70703125 -7.0546875 4.70703125 -4.875 4.8125 C-3.59625 4.874375 -2.3175 4.93625 -1 5 C-0.67 3.35 -0.34 1.7 0 0 Z " fill="#FDFDFD" transform="translate(754,136)"/>
<path d="M0 0 C1.32 0.33 2.64 0.66 4 1 C3.93958131 3.0632984 3.85068362 5.12577414 3.75 7.1875 C3.68039063 8.91033203 3.68039063 8.91033203 3.609375 10.66796875 C2.90536496 14.51745955 1.58651673 16.13331898 -1 19 C-1.67349161 20.66392045 -2.3409159 22.33032028 -3 24 C-4.5 25.8125 -4.5 25.8125 -6 27 C-6.66 27 -7.32 27 -8 27 C-8.061875 27.598125 -8.12375 28.19625 -8.1875 28.8125 C-9 31 -9 31 -11.125 32.75 C-14.6275415 34.27284413 -17.21584557 34.28559656 -21 34 C-21.66 33.67 -22.32 33.34 -23 33 C-23.34994092 25.94933853 -23.19156711 20.38313422 -20 14 C-19.01 13.67 -18.02 13.34 -17 13 C-16.8453125 11.8553125 -16.8453125 11.8553125 -16.6875 10.6875 C-15.95288806 7.81583516 -15.3283935 6.76957906 -13 5 C-12.34 5 -11.68 5 -11 5 C-10.01 6.485 -10.01 6.485 -9 8 C-8.2575 7.505 -7.515 7.01 -6.75 6.5 C-4 5 -4 5 0 5 C0 3.35 0 1.7 0 0 Z " fill="#FDFDFD" transform="translate(179,136)"/>
<path d="M0 0 C0.66 0.33 1.32 0.66 2 1 C-1 6 -1 6 -4 11 C-4.76183594 12.3303125 -4.76183594 12.3303125 -5.5390625 13.6875 C-7.30911436 16.48929332 -9.2870676 18.12181603 -12 20 C-12.66 20 -13.32 20 -14 20 C-14.33 20.99 -14.66 21.98 -15 23 C-15.66 23 -16.32 23 -17 23 C-17.33 23.99 -17.66 24.98 -18 26 C-21.0625 27.1875 -21.0625 27.1875 -24 28 C-24 28.66 -24 29.32 -24 30 C-25.98 30.33 -27.96 30.66 -30 31 C-30.495 32.485 -30.495 32.485 -31 34 C-32.65 34 -34.3 34 -36 34 C-36.495 32.515 -36.495 32.515 -37 31 C-37.66 30.67 -38.32 30.34 -39 30 C-39.48929664 22.78287462 -39.48929664 22.78287462 -37.125 19 C-35 17 -35 17 -33 17 C-33 16.01 -33 15.02 -33 14 C-32.34 14 -31.68 14 -31 14 C-31 13.34 -31 12.68 -31 12 C-30.34 12 -29.68 12 -29 12 C-29 13.65 -29 15.3 -29 17 C-27.68 16.67 -26.36 16.34 -25 16 C-25 15.34 -25 14.68 -25 14 C-24.34 14 -23.68 14 -23 14 C-22.67 13.01 -22.34 12.02 -22 11 C-19.63671875 9.83203125 -19.63671875 9.83203125 -16.6875 8.8125 C-15.23923828 8.29623047 -15.23923828 8.29623047 -13.76171875 7.76953125 C-11 7 -11 7 -7 7 C-7 6.01 -7 5.02 -7 4 C-1.7265625 0.77734375 -1.7265625 0.77734375 0 0 Z " fill="#FCFCFC" transform="translate(547,176)"/>
<path d="M0 0 C1.97265625 0.7421875 1.97265625 0.7421875 3.703125 2.73828125 C5.42056433 6.80200693 5.41180471 10.31402836 5.34765625 14.6796875 C5.35925781 15.46537109 5.37085938 16.25105469 5.3828125 17.06054688 C5.35783083 22.03606347 4.61653667 25.38468088 1.97265625 29.7421875 C0.98265625 29.7421875 -0.00734375 29.7421875 -1.02734375 29.7421875 C-1.02734375 30.4021875 -1.02734375 31.0621875 -1.02734375 31.7421875 C-2.34734375 31.7421875 -3.66734375 31.7421875 -5.02734375 31.7421875 C-5.02734375 31.0821875 -5.02734375 30.4221875 -5.02734375 29.7421875 C-6.34734375 29.4121875 -7.66734375 29.0821875 -9.02734375 28.7421875 C-11.51518167 20.81220413 -12.86440649 11.40005769 -9.65234375 3.4921875 C-7.00911448 -0.98096972 -4.95786277 -0.31507913 0 0 Z " fill="#7F7F7F" transform="translate(413.02734375,93.2578125)"/>
<path d="M0 0 C4.3850887 0.50597177 7.02456932 2.88932247 10 6 C10.375 9.8125 10.375 9.8125 10 13 C8.68 13 7.36 13 6 13 C6 11.02 6 9.04 6 7 C5.01 7 4.02 7 3 7 C3 8.98 3 10.96 3 13 C2.34 13 1.68 13 1 13 C0.505 9.04 0.505 9.04 0 5 C-0.99 5.99 -1.98 6.98 -3 8 C-2.34 8.33 -1.68 8.66 -1 9 C-1.33 10.32 -1.66 11.64 -2 13 C-4.475 12.505 -4.475 12.505 -7 12 C-6.34 11.67 -5.68 11.34 -5 11 C-4.34 11.33 -3.68 11.66 -3 12 C-3 11.34 -3 10.68 -3 10 C-4.32 9.67 -5.64 9.34 -7 9 C-7.391875 9.66 -7.78375 10.32 -8.1875 11 C-10 13 -10 13 -12.625 13.3125 C-15 13 -15 13 -16 12 C-16.04080783 10.00041636 -16.04254356 7.99954746 -16 6 C-16.66 6 -17.32 6 -18 6 C-18 8.31 -18 10.62 -18 13 C-18.66 13 -19.32 13 -20 13 C-20 11.02 -20 9.04 -20 7 C-20.99 7 -21.98 7 -23 7 C-23 8.98 -23 10.96 -23 13 C-23.66 13 -24.32 13 -25 13 C-25 11.02 -25 9.04 -25 7 C-25.99 7 -26.98 7 -28 7 C-28 8.98 -28 10.96 -28 13 C-28.66 13 -29.32 13 -30 13 C-30 10.69 -30 8.38 -30 6 C-30.66 6 -31.32 6 -32 6 C-31.979375 6.969375 -31.95875 7.93875 -31.9375 8.9375 C-32 12 -32 12 -33 13 C-35.4375 13.1875 -35.4375 13.1875 -38 13 C-40.1385485 10.8614515 -40.42655063 9.86724686 -41 7 C-41.66 7 -42.32 7 -43 7 C-43 8.32 -43 9.64 -43 11 C-42.34 11 -41.68 11 -41 11 C-41 11.66 -41 12.32 -41 13 C-41.99 13 -42.98 13 -44 13 C-44 11.02 -44 9.04 -44 7 C-44.66 7 -45.32 7 -46 7 C-46 6.34 -46 5.68 -46 5 C-46.99 4.67 -47.98 4.34 -49 4 C-48 2 -48 2 -46.21875 1.3515625 C-43.83085079 0.97319819 -41.89482479 1.07154617 -39.5 1.375 C-38.37078125 1.51035156 -38.37078125 1.51035156 -37.21875 1.6484375 C-35 2 -35 2 -33.03125 2.57421875 C-29.7673616 3.25837997 -26.70424664 2.54163403 -23.4375 2.05859375 C-21 2 -21 2 -19.19921875 3.01953125 C-15.75441842 4.55531257 -12.43453571 3.76513397 -8.8125 3.25 C-8.07580078 3.16234375 -7.33910156 3.0746875 -6.58007812 2.984375 C-4.70769007 2.73633095 -2.85085182 2.37644444 -1 2 C-0.67 1.34 -0.34 0.68 0 0 Z " fill="#E8E8E8" transform="translate(1003,279)"/>
<path d="M0 0 C0.66 0 1.32 0 2 0 C2.33 2.31 2.66 4.62 3 7 C13.25978514 8.48436493 13.25978514 8.48436493 23 6 C24.53146378 2.99405579 24.53146378 2.99405579 25 0 C25.99 0 26.98 0 28 0 C28 3.3 28 6.6 28 10 C26.35 10.66 24.7 11.32 23 12 C23 12.99 23 13.98 23 15 C16.64922989 17.63489398 11.73190476 18.69444301 5.14453125 16.27734375 C2.04946441 14.43383399 0.78967273 12.44848034 -0.52734375 9.140625 C-1.26834367 5.78469147 -0.82986584 3.31946336 0 0 Z " fill="#FDFDFD" transform="translate(786,160)"/>
<path d="M0 0 C3 2 3 2 3.6875 4.125 C3.8421875 5.053125 3.8421875 5.053125 4 6 C13.68962555 8.31581996 13.68962555 8.31581996 23 6 C24.99425024 3.01565163 24.99425024 3.01565163 26 0 C26.66 0 27.32 0 28 0 C28.17835515 4.54805635 27.99785435 7.8794254 26 12 C25.34 12 24.68 12 24 12 C24 12.99 24 13.98 24 15 C17.42096452 17.89290922 12.82883562 18.36771468 6 16 C5.34 15.67 4.68 15.34 4 15 C4 14.01 4 13.02 4 12 C3.01 11.67 2.02 11.34 1 11 C-0.20272819 8.59454362 -0.10071472 7.05003047 -0.0625 4.375 C-0.05347656 3.55773437 -0.04445313 2.74046875 -0.03515625 1.8984375 C-0.02355469 1.27195313 -0.01195312 0.64546875 0 0 Z " fill="#FDFDFD" transform="translate(257,160)"/>
<path d="M0 0 C0.33 0 0.66 0 1 0 C1 3.3 1 6.6 1 10 C1.66 10 2.32 10 3 10 C3 8.02 3 6.04 3 4 C3.99 4 4.98 4 6 4 C6 5.98 6 7.96 6 10 C7.32 10.33 8.64 10.66 10 11 C8.401833 12.598167 6.72473502 12.12730981 4.51196289 12.12939453 C3.08026512 12.13412277 3.08026512 12.13412277 1.61964417 12.13894653 C0.58113815 12.1369223 -0.45736786 12.13489807 -1.52734375 12.1328125 C-3.11622154 12.13424759 -3.11622154 12.13424759 -4.73719788 12.13571167 C-6.98259541 12.1363937 -9.2279949 12.13453784 -11.47338867 12.13037109 C-14.919153 12.12502845 -18.36478666 12.13031262 -21.81054688 12.13671875 C-23.98697946 12.13605787 -26.16341195 12.1347765 -28.33984375 12.1328125 C-29.37632553 12.13483673 -30.41280731 12.13686096 -31.48069763 12.13894653 C-32.43831497 12.13579437 -33.39593231 12.13264221 -34.38256836 12.12939453 C-35.22782578 12.12859894 -36.07308319 12.12780334 -36.94395447 12.12698364 C-39 12 -39 12 -41 11 C-41 10.01 -41 9.02 -41 8 C-41.66 8 -42.32 8 -43 8 C-43 6.68 -43 5.36 -43 4 C-42.01 3.67 -41.02 3.34 -40 3 C-39.34 4.98 -38.68 6.96 -38 9 C-36.35 9 -34.7 9 -33 9 C-32.67 7.02 -32.34 5.04 -32 3 C-31.34 3 -30.68 3 -30 3 C-30 5.31 -30 7.62 -30 10 C-29.34 10 -28.68 10 -28 10 C-28 8.02 -28 6.04 -28 4 C-27.01 4 -26.02 4 -25 4 C-25 5.98 -25 7.96 -25 10 C-24.34 10 -23.68 10 -23 10 C-23 8.02 -23 6.04 -23 4 C-22.01 4 -21.02 4 -20 4 C-20 5.98 -20 7.96 -20 10 C-19.34 10 -18.68 10 -18 10 C-18 7.69 -18 5.38 -18 3 C-17.34 3 -16.68 3 -16 3 C-15.67 4.98 -15.34 6.96 -15 9 C-13.35 9 -11.7 9 -10 9 C-9.34 7.35 -8.68 5.7 -8 4 C-5.5 5.375 -5.5 5.375 -3 7 C-3 7.66 -3 8.32 -3 9 C-2.67 9 -2.34 9 -2 9 C-1.67 8.01 -1.34 7.02 -1 6 C-2.32 5.34 -3.64 4.68 -5 4 C-3.68 4 -2.36 4 -1 4 C-0.67 2.68 -0.34 1.36 0 0 Z " fill="#DDDDDD" transform="translate(1003,282)"/>
<path d="M0 0 C0.99 0 1.98 0 3 0 C2.62880325 6.43407708 2.62880325 6.43407708 -0.5 9.25 C-1.325 9.8275 -2.15 10.405 -3 11 C-3.33 11.99 -3.66 12.98 -4 14 C-8.29 14.66 -12.58 15.32 -17 16 C-17.33 15.34 -17.66 14.68 -18 14 C-16.40382422 10.16917814 -15.50015029 8.33343353 -12 6 C-11.67 5.01 -11.34 4.02 -11 3 C-10.34 3 -9.68 3 -9 3 C-9 3.99 -9 4.98 -9 6 C-7.68 6 -6.36 6 -5 6 C-4.67 5.01 -4.34 4.02 -4 3 C-3.67 3.99 -3.34 4.98 -3 6 C-2.01 4.02 -1.02 2.04 0 0 Z " fill="#FCFCFC" transform="translate(807,135)"/>
<path d="M0 0 C0.99 0 1.98 0 3 0 C2.62880325 6.43407708 2.62880325 6.43407708 -0.5 9.25 C-1.325 9.8275 -2.15 10.405 -3 11 C-3.33 11.99 -3.66 12.98 -4 14 C-6.64458379 15.32229189 -8.67761301 15.09677194 -11.625 15.0625 C-12.62789063 15.05347656 -13.63078125 15.04445312 -14.6640625 15.03515625 C-15.43492187 15.02355469 -16.20578125 15.01195312 -17 15 C-16.5045045 9.42567568 -16.5045045 9.42567568 -14 7.3125 C-13.34 6.879375 -12.68 6.44625 -12 6 C-11.67 5.01 -11.34 4.02 -11 3 C-10.01 2.67 -9.02 2.34 -8 2 C-8 3.65 -8 5.3 -8 7 C-6.02 6.67 -4.04 6.34 -2 6 C-1.855625 5.38125 -1.71125 4.7625 -1.5625 4.125 C-1 2 -1 2 0 0 Z " fill="#F7F7F7" transform="translate(278,135)"/>
<path d="M0 0 C1.62490954 -0.02698189 3.24994633 -0.04638757 4.875 -0.0625 C5.77992188 -0.07410156 6.68484375 -0.08570313 7.6171875 -0.09765625 C10 0 10 0 12 1 C12 3.31 12 5.62 12 8 C11.34 8 10.68 8 10 8 C10 6.02 10 4.04 10 2 C9.01 2 8.02 2 7 2 C7 3.98 7 5.96 7 8 C6.34 8 5.68 8 5 8 C5 6.02 5 4.04 5 2 C4.01 2 3.02 2 2 2 C2 3.98 2 5.96 2 8 C1.34 8 0.68 8 0 8 C0 5.36 0 2.72 0 0 Z " fill="#FCFCFC" transform="translate(973,284)"/>
<path d="M0 0 C2.625 0.375 2.625 0.375 5 1 C5.625 3.375 5.625 3.375 6 6 C5.34 6.66 4.68 7.32 4 8 C1.375 7.625 1.375 7.625 -1 7 C-1.625 4.625 -1.625 4.625 -2 2 C-1.34 1.34 -0.68 0.68 0 0 Z " fill="#ECECEC" transform="translate(950,284)"/>
<path d="M0 0 C0.33 0 0.66 0 1 0 C1 2.64 1 5.28 1 8 C1.66 8 2.32 8 3 8 C3 6.35 3 4.7 3 3 C3.99 2.67 4.98 2.34 6 2 C6 4.31 6 6.62 6 9 C1.93631321 9.77403558 -1.86425173 10.0984702 -6 10 C-6 9.34 -6 8.68 -6 8 C-4.68 7.67 -3.36 7.34 -2 7 C-1.34 4.69 -0.68 2.38 0 0 Z " fill="#D6D6D6" transform="translate(938,284)"/>
<path d="M0 0 C3.70129644 0.38961015 5.61879622 1.11749016 8 4 C3.25 3.125 3.25 3.125 1 2 C0.87625 2.598125 0.7525 3.19625 0.625 3.8125 C0 6 0 6 -2 9 C-2.61875 8.79375 -3.2375 8.5875 -3.875 8.375 C-4.57625 8.25125 -5.2775 8.1275 -6 8 C-6.66 8.66 -7.32 9.32 -8 10 C-8 8.68 -8 7.36 -8 6 C-7.01 5.67 -6.02 5.34 -5 5 C-5.66 4.34 -6.32 3.68 -7 3 C-5.5459375 2.5359375 -5.5459375 2.5359375 -4.0625 2.0625 C-1.15934208 1.30476658 -1.15934208 1.30476658 0 0 Z " fill="#F0F0F0" transform="translate(938,279)"/>
<path d="M0 0 C0.87785156 0.07863281 1.75570312 0.15726562 2.66015625 0.23828125 C4.9375 0.6875 4.9375 0.6875 6.9375 2.6875 C3.9675 2.6875 0.9975 2.6875 -2.0625 2.6875 C-1.7325 3.6775 -1.4025 4.6675 -1.0625 5.6875 C-1.7225 5.6875 -2.3825 5.6875 -3.0625 5.6875 C-3.0625 7.0075 -3.0625 8.3275 -3.0625 9.6875 C-2.4025 9.6875 -1.7425 9.6875 -1.0625 9.6875 C-1.0625 10.3475 -1.0625 11.0075 -1.0625 11.6875 C-2.0525 11.6875 -3.0425 11.6875 -4.0625 11.6875 C-4.0625 9.7075 -4.0625 7.7275 -4.0625 5.6875 C-4.7225 5.6875 -5.3825 5.6875 -6.0625 5.6875 C-6.0625 5.0275 -6.0625 4.3675 -6.0625 3.6875 C-7.0525 3.3575 -8.0425 3.0275 -9.0625 2.6875 C-7.15314849 -1.13120301 -3.72029494 -0.36709832 0 0 Z " fill="#EFEFEF" transform="translate(963.0625,280.3125)"/>
<path d="M0 0 C0.66 0 1.32 0 2 0 C2 1.32 2 2.64 2 4 C3.65 4 5.3 4 7 4 C7 6.31 7 8.62 7 11 C6.34 11 5.68 11 5 11 C5 9.02 5 7.04 5 5 C4.01 5 3.02 5 2 5 C2 6.98 2 8.96 2 11 C1.34 11 0.68 11 0 11 C0 7.37 0 3.74 0 0 Z " fill="#FDFDFD" transform="translate(1004,281)"/>
<path d="M0 0 C2.15377564 2.62198774 3.40072174 4.64404172 4 8 C4.66 8 5.32 8 6 8 C5.34 9.65 4.68 11.3 4 13 C1.2669164 10.63960962 -0.00684499 8.47604252 -1 5 C-0.625 2.1875 -0.625 2.1875 0 0 Z " fill="#8B8B8B" transform="translate(75,220)"/>
<path d="M0 0 C0.99 0 1.98 0 3 0 C3 1.98 3 3.96 3 6 C4.65 6.33 6.3 6.66 8 7 C4.92677456 7.91058531 2.19902639 8.08886184 -1 8 C-1.33 7.34 -1.66 6.68 -2 6 C-1.34 6 -0.68 6 0 6 C0 4.02 0 2.04 0 0 Z " fill="#DDDDDD" transform="translate(980,286)"/>
<path d="M0 0 C5.875 3.875 5.875 3.875 7 5 C7.04092937 7.33297433 7.04241723 9.66705225 7 12 C6.34 12 5.68 12 5 12 C5 9.69 5 7.38 5 5 C3.35 5 1.7 5 0 5 C0 3.35 0 1.7 0 0 Z " fill="#E2E2E2" transform="translate(1006,280)"/>
<path d="M0 0 C0.66 1.32 1.32 2.64 2 4 C0.02 6.64 -1.96 9.28 -4 12 C-4.66 11.34 -5.32 10.68 -6 10 C-4.95125002 7.37812506 -4.35068687 6.20628639 -1.875 4.75 C-1.25625 4.5025 -0.6375 4.255 0 4 C0 2.68 0 1.36 0 0 Z " fill="#7F7F7F" transform="translate(127,216)"/>
<path d="M0 0 C1.32 0.66 2.64 1.32 4 2 C3.01 2.495 3.01 2.495 2 3 C2.66 3.33 3.32 3.66 4 4 C3.67 5.32 3.34 6.64 3 8 C1.35 7.67 -0.3 7.34 -2 7 C-1.34 6.67 -0.68 6.34 0 6 C0.66 6.33 1.32 6.66 2 7 C2 6.34 2 5.68 2 5 C0.68 4.67 -0.64 4.34 -2 4 C-1.34 2.68 -0.68 1.36 0 0 Z " fill="#F8F8F8" transform="translate(998,284)"/>
<path d="M0 0 C4.455 0.99 4.455 0.99 9 2 C8.34 4.31 7.68 6.62 7 9 C6.34 8.67 5.68 8.34 5 8 C4.375 5.4375 4.375 5.4375 4 3 C2.68 3 1.36 3 0 3 C0 2.01 0 1.02 0 0 Z " fill="#D6D6D6" transform="translate(941,282)"/>
<path d="M0 0 C0.33 0 0.66 0 1 0 C1 3.3 1 6.6 1 10 C0.34 10 -0.32 10 -1 10 C-1 8.68 -1 7.36 -1 6 C-2.32 5.34 -3.64 4.68 -5 4 C-3.68 4 -2.36 4 -1 4 C-0.67 2.68 -0.34 1.36 0 0 Z " fill="#CCCCCC" transform="translate(1003,282)"/>
<path d="M0 0 C0.99 0 1.98 0 3 0 C2.67 0.99 2.34 1.98 2 3 C1.34 3 0.68 3 0 3 C0.33 4.65 0.66 6.3 1 8 C0.34 8 -0.32 8 -1 8 C-1 7.34 -1 6.68 -1 6 C-2.32 6.33 -3.64 6.66 -5 7 C-4.24172908 5.82512964 -3.46792245 4.66027408 -2.6875 3.5 C-2.25824219 2.8503125 -1.82898438 2.200625 -1.38671875 1.53125 C-0.70029297 0.77328125 -0.70029297 0.77328125 0 0 Z " fill="#BFBFBF" transform="translate(442,190)"/>
<path d="M0 0 C0.33 0.66 0.66 1.32 1 2 C1.66 2 2.32 2 3 2 C3 2.66 3 3.32 3 4 C2.34 4 1.68 4 1 4 C1 5.32 1 6.64 1 8 C1.66 8 2.32 8 3 8 C3 8.66 3 9.32 3 10 C2.01 10 1.02 10 0 10 C0 8.02 0 6.04 0 4 C-0.66 4 -1.32 4 -2 4 C-2 3.34 -2 2.68 -2 2 C-1.34 2 -0.68 2 0 2 C0 1.34 0 0.68 0 0 Z " fill="#FAFAFA" transform="translate(959,282)"/>
<path d="M0 0 C0 2.31 0 4.62 0 7 C-0.66 7 -1.32 7 -2 7 C-2.2475 6.21625 -2.495 5.4325 -2.75 4.625 C-4.15389099 1.67682892 -5.00675737 1.0975223 -8 0 C-4.71023192 -1.09658936 -3.28696233 -0.79953138 0 0 Z " fill="#D3D3D3" transform="translate(958,283)"/>
<path d="M0 0 C0.33 0.66 0.66 1.32 1 2 C-2.21451269 3.60725635 -5.43612536 3.05748185 -9 3 C-6.38997624 -0.48003168 -4.1689578 -0.27793052 0 0 Z " fill="#E9E9E9" transform="translate(1002,291)"/>
<path d="M0 0 C0.99 0 1.98 0 3 0 C3 2.31 3 4.62 3 7 C2.01 6.34 1.02 5.68 0 5 C-0.1875 2.375 -0.1875 2.375 0 0 Z " fill="#D0D0D0" transform="translate(975,286)"/>
<path d="M0 0 C0.33 0 0.66 0 1 0 C1 1.98 1 3.96 1 6 C2.32 6.33 3.64 6.66 5 7 C5 7.33 5 7.66 5 8 C2.69 7.67 0.38 7.34 -2 7 C-1.34 6.67 -0.68 6.34 0 6 C0 4.02 0 2.04 0 0 Z " fill="#ECECEC" transform="translate(958,286)"/>
<path d="M0 0 C0.99 0 1.98 0 3 0 C3 1.98 3 3.96 3 6 C2.01 5.67 1.02 5.34 0 5 C0 3.35 0 1.7 0 0 Z " fill="#CCCCCC" transform="translate(1006,286)"/>
<path d="M0 0 C0.33 2.31 0.66 4.62 1 7 C0.34 7 -0.32 7 -1 7 C-1 6.34 -1 5.68 -1 5 C-1.66 5 -2.32 5 -3 5 C-3 3.68 -3 2.36 -3 1 C-1 0 -1 0 0 0 Z " fill="#CDCDCD" transform="translate(963,285)"/>
<path d="M0 0 C2.15377564 2.62198774 3.40072174 4.64404172 4 8 C2.0625 7.25 2.0625 7.25 0 6 C-0.8125 4 -0.8125 4 -1 2 C-0.67 1.34 -0.34 0.68 0 0 Z " fill="#FCFCFC" transform="translate(75,220)"/>
<path d="M0 0 C0.33 0.99 0.66 1.98 1 3 C-0.98 3.66 -2.96 4.32 -5 5 C-4.625 3.0625 -4.625 3.0625 -4 1 C-2 0 -2 0 0 0 Z " fill="#9D9D9D" transform="translate(70,122)"/>
</svg>
